<svg xmlns="http://www.w3.org/2000/svg" viewBox="0 0 54.11 77.5"><defs><style>.aba79242-f475-4cbc-80dd-95b1499c417d{fill:#262626;}</style></defs><title>Asset 12</title><g id="bfd652f4-9412-4166-a52a-dd81852756ca" data-name="Layer 2"><g id="a8ff3db2-ef30-4029-ae20-0af204ca99d3" data-name="advocate-white"><g id="e952b67c-64c8-4981-8c5a-06f84d7a58dd" data-name="Icon"><path class="aba79242-f475-4cbc-80dd-95b1499c417d" d="M50.23,72.3a3.87,3.87,0,0,0,3-1.43A3.81,3.81,0,0,0,54,67.68l-6.1-30.61A4,4,0,0,0,44,33.83H41.1V28.58a5.48,5.48,0,0,0-4-5.4l-.12,0a4.58,4.58,0,0,1-.49-.15l-.73-.27.75-.21c.73-.2,1.51-.46,2.3-.75a1.62,1.62,0,0,0,.93-1,1.58,1.58,0,0,0-.23-1.39A11,11,0,0,1,37.73,11a8.63,8.63,0,0,0-1.95-7.19A11.3,11.3,0,0,0,27.05,0a11.26,11.26,0,0,0-8.74,3.76A8.64,8.64,0,0,0,16.38,11a11,11,0,0,1-1.78,8.42,1.67,1.67,0,0,0-.23,1.37,1.56,1.56,0,0,0,.94,1,19.14,19.14,0,0,0,2.31.75l.87.22-.85.26c-.26.08-.51.16-.74.21A5.46,5.46,0,0,0,13,28.56v5.25H9.94a4.07,4.07,0,0,0-4,3.26L.07,67.68A3.92,3.92,0,0,0,3.86,72.3H13v.25a.65.65,0,0,1,0,.17V77.5h2.09V72.76a3.4,3.4,0,0,1,2.51-3.38l.56-.19a18.72,18.72,0,0,0,5.56-2.65l.12-.09.14,0a7.8,7.8,0,0,0,3.06.59,7.64,7.64,0,0,0,3.07-.59l.14,0,.12.09a18.72,18.72,0,0,0,5.56,2.65l.53.17A3.41,3.41,0,0,1,39,72.76V77.5H41.1V72.76a.56.56,0,0,1,0-.21V72.3Zm-33.65-52-.29-.11.17-.26a12.79,12.79,0,0,0,1.73-9.25A6.94,6.94,0,0,1,19.72,5a9.44,9.44,0,0,1,7.33-3.1A9.51,9.51,0,0,1,34.39,5a6.89,6.89,0,0,1,1.52,5.69,12.86,12.86,0,0,0,1.74,9.26l.17.27-.3.1a13.66,13.66,0,0,1-4.27.87,5.33,5.33,0,0,1-1-.08l-.1,0c-1-.68-1.46-1.29-1.46-1.86v-.8l.06-.07a12.4,12.4,0,0,0,2.67-8.07,1,1,0,0,0-.89-.93c-5.4-.22-6.93-2.92-7.18-3.47A.93.93,0,0,0,23.58,6,3.32,3.32,0,0,1,21.29,8.2a.9.9,0,0,0-.62.87c0,3.91.95,7.2,2.67,9.25l.06.07v.76c0,.59-.48,1.2-1.47,1.87l-.09,0A11.4,11.4,0,0,1,16.58,20.28Zm8.73-.09.08-.24.25.09a3.49,3.49,0,0,0,2.83,0l.24-.09.09.24A6,6,0,0,0,31.36,23l.2.12L27.09,31l-4.49-7.9.2-.13A5.78,5.78,0,0,0,25.31,20.19ZM22.53,9.86V9.7l.14-.07a5.58,5.58,0,0,0,1.79-1.4L24.64,8l.19.21a10.2,10.2,0,0,0,6.52,2.86l.24,0,0,.25c-.32,4.27-2.58,7.15-4.5,7.15C25.31,18.49,22.73,15.81,22.53,9.86Zm-5,15.36a22.91,22.91,0,0,0,3.27-1.15L21,24l4.91,8.65a1.37,1.37,0,0,0,1.15.7h.08a1.46,1.46,0,0,0,1.18-.71L33.2,24l.21.09a22.52,22.52,0,0,0,3.07,1.1A3.4,3.4,0,0,1,39,28.58v5.25H35.93V32.28a1,1,0,0,0-1-1.05,1,1,0,0,0-1,1.05v1.55H20.34V32.28a1,1,0,0,0-1-1.05,1.06,1.06,0,0,0-1.05,1.05v1.55H15.16v-5l-.06-.25A3.37,3.37,0,0,1,17.51,25.22ZM28.6,62v1.35a3.22,3.22,0,0,0,.2,1.14l.08.25-.26.07a5.58,5.58,0,0,1-1.57.2,6.82,6.82,0,0,1-1.56-.19l-.27-.07.09-.26a3.47,3.47,0,0,0,.2-1.14V62a10.76,10.76,0,0,1-3.6-4.72h-.5c-.77,0-1.14-.45-1.33-1.66a1.4,1.4,0,0,1,.15-1.15,1,1,0,0,1,.75-.3h.56c-.5-2.49-.2-4.43.89-5.79a5.7,5.7,0,0,1,4.22-1.93.7.7,0,0,1,.72.58c.13.36.29.81,1.95.81a3.25,3.25,0,0,1,2.55.91c1,1.12.83,3.09.65,5,0,.14,0,.29-.05.44h.64a1,1,0,0,1,.77.3A1.43,1.43,0,0,1,34,55.59c-.2,1.21-.56,1.66-1.34,1.66h-.55A9.27,9.27,0,0,1,28.6,62Zm11.85,8.23-.07-.13a5.78,5.78,0,0,0-3.22-2.68l-.54-.19c-1.95-.67-5.91-2-5.91-3.88v-.72l.08-.07c1.49-1.37,2.71-3.14,2.84-4.12l0-.22h.22c.86,0,1.5-.19,1.94-2.67a2.31,2.31,0,0,0-.14-1.7,1.2,1.2,0,0,0-1-.31h-.29l0-.28c.48-2.78.24-4.69-.73-5.84-.84-1-2.24-1.46-4.42-1.46h-.26V45.7a1.59,1.59,0,0,0-.36-1.05,1.46,1.46,0,0,0-1.12-.4,9.22,9.22,0,0,0-6.92,3.11,6.58,6.58,0,0,0-1.05,5.88l.07.3h-.31c-.52,0-.8.12-1,.33a2.22,2.22,0,0,0-.14,1.68c.42,2.48,1.1,2.67,1.94,2.67h.22l0,.22c.12,1,1.35,2.76,2.86,4.14l.08.07v.72c0,1.71-3.39,3-5.93,3.86l-.57.19a5.76,5.76,0,0,0-3.2,2.66l-.07.13H3.86a1.74,1.74,0,0,1-1.36-.66,1.88,1.88,0,0,1-.37-1.46L8,37.49a1.92,1.92,0,0,1,1.9-1.55H44a2,2,0,0,1,1.9,1.55L52,68.1a1.85,1.85,0,0,1-.38,1.46h0a1.83,1.83,0,0,1-1.37.68Z"/></g></g></g></svg>