<svg xmlns="http://www.w3.org/2000/svg" viewBox="0 0 78 78"><defs><style>.b97eff4b-99f5-4446-8012-075f21383fdb{fill:#231f20;}</style></defs><title>Asset 3</title><g id="b229c8cd-e370-4825-9ca8-e9e68b827ba5" data-name="Layer 2"><g id="e2c6b6cb-c752-4026-82ba-5ad5e9a2d091" data-name="Layer 1"><path d="M39,4A35,35,0,1,1,4,39,35,35,0,0,1,39,4m0-4A39,39,0,1,0,78,39,39,39,0,0,0,39,0Z"/></g><g id="ecac44cb-57f1-4fa5-b7a7-f10fc8db24f6" data-name="Layer 7"><path class="b97eff4b-99f5-4446-8012-075f21383fdb" d="M37.15,25.23l-5.19,4a1.09,1.09,0,0,1-1.65-.07l-1.37-1.51a1.13,1.13,0,0,1,.14-1.59L39.17,16.3h1.94a1.36,1.36,0,0,1,1.3,1.37V63.9a1.36,1.36,0,0,1-1.3,1.37H38.52a1.37,1.37,0,0,1-1.37-1.37Z"/></g></g></svg>