<svg xmlns="http://www.w3.org/2000/svg" viewBox="0 0 78 78"><defs><style>.b51cca16-938d-486f-aaa9-d81d409a1115{fill:#231f20;}</style></defs><title>Asset 4</title><g id="e53e1ff0-6c72-429e-a0ea-e0259a6cedce" data-name="Layer 2"><g id="e175b2b7-93f1-4bdb-9833-6991e2a75a24" data-name="Layer 1"><path d="M39,4A35,35,0,1,1,4,39,35,35,0,0,1,39,4m0-4A39,39,0,1,0,78,39,39,39,0,0,0,39,0Z"/></g><g id="b6bbb65e-3aad-41a5-aa28-bb09988e8c1f" data-name="Layer 2"><path class="b51cca16-938d-486f-aaa9-d81d409a1115" d="M23.44,61.74C29.35,55.4,35.18,49,41.09,42.66c4.89-5.33,7.27-9.65,7.27-13,0-4.1-2.67-9.14-10.08-9.14-4.47,0-8,3-10.23,5.4a1.31,1.31,0,0,1-1.94,0l-1.44-1.37a1.42,1.42,0,0,1-.07-1.87s5.11-7.06,13.68-7.06c10.29,0,15.55,6.55,15.55,13.9,0,6.33-4,11-9,16.34-4.61,4.9-9.22,9.87-13.83,14.77H52.17A1.41,1.41,0,0,1,53.54,62V63.9a1.42,1.42,0,0,1-1.37,1.37H24.81a1.37,1.37,0,0,1-1.37-1.37Z"/></g></g></svg>