<svg xmlns="http://www.w3.org/2000/svg" viewBox="0 0 78 75.54"><defs><style>.b499cea3-58eb-4a0d-906a-b710d964971f{fill:#262626;}</style></defs><title>Database</title><g id="f778cf47-e415-4eec-b2d2-564ffb8b10a1" data-name="Layer 2"><g id="af98ca70-13cb-4fb9-9f4d-be43d3084417" data-name="database"><path class="b499cea3-58eb-4a0d-906a-b710d964971f" d="M76.77,18.12H1.23a.59.59,0,0,1-.62-.62V1.23A.59.59,0,0,1,1.23.61H76.77a.59.59,0,0,1,.62.62V17.5A.59.59,0,0,1,76.77,18.12ZM1.84,16.89H76.16v-15H1.84Z"/><path class="b499cea3-58eb-4a0d-906a-b710d964971f" d="M76.77,75.54H1.23A1.23,1.23,0,0,1,0,74.31V1.23A1.23,1.23,0,0,1,1.23,0H76.77A1.23,1.23,0,0,1,78,1.23V74.38A1.22,1.22,0,0,1,76.77,75.54ZM2.46,73.09H75.54V2.46H2.46Z"/><path class="b499cea3-58eb-4a0d-906a-b710d964971f" d="M19.35,38.26a.85.85,0,0,1-.37-.12l-5.22-3.93L8.54,38.14a.59.59,0,0,1-.62.06.72.72,0,0,1-.37-.55V17.5a.59.59,0,0,1,.62-.61H19.35a.58.58,0,0,1,.61.61V37.65a.58.58,0,0,1-.37.55A.36.36,0,0,1,19.35,38.26ZM13.76,32.8a.94.94,0,0,1,.37.12l4.6,3.5V18.12h-10v18.3l4.61-3.5A.65.65,0,0,1,13.76,32.8Z"/><path class="b499cea3-58eb-4a0d-906a-b710d964971f" d="M66.58,45.76H28.25a.58.58,0,0,1-.61-.62.57.57,0,0,1,.61-.61H66.58a.58.58,0,0,1,.61.61A.62.62,0,0,1,66.58,45.76Z"/><path class="b499cea3-58eb-4a0d-906a-b710d964971f" d="M66.58,29.79H28.25a.58.58,0,0,1-.61-.62.57.57,0,0,1,.61-.61H66.58a.58.58,0,0,1,.61.61A.62.62,0,0,1,66.58,29.79Z"/><path class="b499cea3-58eb-4a0d-906a-b710d964971f" d="M66.58,61.72H28.25a.61.61,0,0,1,0-1.22H66.58a.58.58,0,0,1,.61.61A.66.66,0,0,1,66.58,61.72Z"/><path class="b499cea3-58eb-4a0d-906a-b710d964971f" d="M48.34,10h-5.1a.62.62,0,1,1,0-1.23h5.1a.59.59,0,0,1,.61.62A.62.62,0,0,1,48.34,10Z"/><path class="b499cea3-58eb-4a0d-906a-b710d964971f" d="M60,10H54.91a.62.62,0,1,1,0-1.23H60a.59.59,0,0,1,.62.62A.62.62,0,0,1,60,10Z"/><path class="b499cea3-58eb-4a0d-906a-b710d964971f" d="M71.67,10H66.58a.62.62,0,1,1,0-1.23h5.09a.59.59,0,0,1,.62.62A.62.62,0,0,1,71.67,10Z"/></g></g></svg>