<svg xmlns="http://www.w3.org/2000/svg" viewBox="0 0 260 260"><defs><style>.b2e1b150-c5fc-4fd4-9473-99816d7e69d4{fill:#fff;}.bef54922-850d-494f-8643-d7f4589ef96a{fill:#279c49;}.fcb14828-d2f0-48f4-868c-8747fe3f4e21{fill:#65666a;}.bdc34740-077f-4353-a2a4-4445f7abed9d{fill:none;}.b02cede1-0841-49c3-84b4-dba5452daae3{fill:#355caa;}</style></defs><title>Asset 2</title><g id="a179f247-161f-4ebc-81b2-03da50babe73" data-name="Layer 2"><g id="f607fac7-8283-49f6-b7ec-cc599e4f891b" data-name="Layer 1"><rect class="b2e1b150-c5fc-4fd4-9473-99816d7e69d4" width="260" height="260"/><path class="bef54922-850d-494f-8643-d7f4589ef96a" d="M134.39,167.75V152.1a28.78,28.78,0,0,1-13.77-13.39h0a5.44,5.44,0,0,1-.43-5.17A5.19,5.19,0,0,1,124.4,131c3.38-.46,6.69-1.07,10-1.79V111.07a8.45,8.45,0,0,0-8.42-8.42H109.4a8.45,8.45,0,0,0-8.42,8.42v60.66h.39A131.77,131.77,0,0,0,134.39,167.75Z"/><circle class="bef54922-850d-494f-8643-d7f4589ef96a" cx="118.29" cy="76.37" r="17.3"/><path class="fcb14828-d2f0-48f4-868c-8747fe3f4e21" d="M170.43,117.8c2.34-.86,4.61-1.68,6.85-2.46a8.39,8.39,0,0,0-6.85-3.58H153.86a8.46,8.46,0,0,0-8.42,8.42v6.09c8.12-2.38,16.06-5.26,23.94-8Z"/><path class="fcb14828-d2f0-48f4-868c-8747fe3f4e21" d="M150.46,156a43.44,43.44,0,0,1-6.24-.44v8.71a95.56,95.56,0,0,0,20.51-10.09A64.2,64.2,0,0,1,150.46,156Z"/><circle class="fcb14828-d2f0-48f4-868c-8747fe3f4e21" cx="162.74" cy="85.48" r="17.3"/><path class="bef54922-850d-494f-8643-d7f4589ef96a" d="M255.19,125.83l-.44-.31a76,76,0,0,0-27.21-10.93,64.08,64.08,0,0,0-30.13.29c-7.93,2.17-15.58,4.87-24,7.92l-1,.39c-14.5,5.25-29.44,10.71-45.24,12.9a23.53,23.53,0,0,0,12.05,10.71,35.18,35.18,0,0,0,13.63,2.59,64.84,64.84,0,0,0,15.85-2.3c2.88-.72,5.79-1.68,8.62-2.67,1.34-.46,2.67-.89,4-1.34l1.34-.42,3.05,2.79-1.55,1.94-.35.41c-.39.44-.76.9-1.22,1.34-10.92,10.13-24.24,17.46-40.81,22.42a136.47,136.47,0,0,1-39.4,5.5c-4,0-8-.15-12.14-.43a199.63,199.63,0,0,1-35.68-5.81,4.86,4.86,0,0,0-1.13-.19c-.3,0-.38,0-.59.42s.09.93,1,1.44A189.66,189.66,0,0,0,107,193a169.53,169.53,0,0,0,33.45,3.88,171.3,171.3,0,0,0,17.4-.8,147.25,147.25,0,0,0,34-7.1,187.45,187.45,0,0,0,50.85-26.55c4.32-3.14,8.5-6.5,12.48-9.91V125.83Z"/><path class="bdc34740-077f-4353-a2a4-4445f7abed9d" d="M41.46,131.41v-.08a.14.14,0,0,0,0,.09Z"/><path class="bdc34740-077f-4353-a2a4-4445f7abed9d" d="M41.73,127.73a3.73,3.73,0,0,0-.18-.75A4.56,4.56,0,0,1,41.73,127.73Z"/><path class="bdc34740-077f-4353-a2a4-4445f7abed9d" d="M34.73,129.08a3.73,3.73,0,0,1-.12-.94A3,3,0,0,0,34.73,129.08Z"/><path class="bdc34740-077f-4353-a2a4-4445f7abed9d" d="M38.26,149.23l.19-.2Z"/><path class="bdc34740-077f-4353-a2a4-4445f7abed9d" d="M14.88,103.64a4.7,4.7,0,0,1-.51-.12h0A2.36,2.36,0,0,0,14.88,103.64Z"/><path class="bdc34740-077f-4353-a2a4-4445f7abed9d" d="M13.22,83.31a3.94,3.94,0,0,0-.36-.45h0A3.94,3.94,0,0,1,13.22,83.31Z"/><path class="bdc34740-077f-4353-a2a4-4445f7abed9d" d="M26.76,119.85h0a4.84,4.84,0,0,0,.19.65A4.84,4.84,0,0,1,26.76,119.85Z"/><path class="bdc34740-077f-4353-a2a4-4445f7abed9d" d="M26.72,119.56v0Z"/><path class="bdc34740-077f-4353-a2a4-4445f7abed9d" d="M26.76,119.85h0a4.84,4.84,0,0,0,.19.65A4.84,4.84,0,0,1,26.76,119.85Z"/><path class="bdc34740-077f-4353-a2a4-4445f7abed9d" d="M34.73,129.08a3.73,3.73,0,0,1-.12-.94A3,3,0,0,0,34.73,129.08Z"/><path class="bdc34740-077f-4353-a2a4-4445f7abed9d" d="M26.72,119.56v0Z"/><path class="bdc34740-077f-4353-a2a4-4445f7abed9d" d="M38.26,149.23l.19-.2Z"/><path class="bdc34740-077f-4353-a2a4-4445f7abed9d" d="M41.73,127.73a3.73,3.73,0,0,0-.18-.75A4.56,4.56,0,0,1,41.73,127.73Z"/><path class="bdc34740-077f-4353-a2a4-4445f7abed9d" d="M13.22,83.31a3.94,3.94,0,0,0-.36-.45h0A3.94,3.94,0,0,1,13.22,83.31Z"/><path class="bdc34740-077f-4353-a2a4-4445f7abed9d" d="M41.46,131.41v-.08a.14.14,0,0,0,0,.09Z"/><path class="bdc34740-077f-4353-a2a4-4445f7abed9d" d="M14.88,103.64a4.7,4.7,0,0,1-.51-.12h0A2.36,2.36,0,0,0,14.88,103.64Z"/><path class="b02cede1-0841-49c3-84b4-dba5452daae3" d="M91.71,120.18a8.44,8.44,0,0,0-8.4-8.42H66.74a8.45,8.45,0,0,0-8.41,8.42v45.5a191.45,191.45,0,0,0,33.46,5.49v-51Z"/><circle class="b02cede1-0841-49c3-84b4-dba5452daae3" cx="75.62" cy="85.48" r="17.3"/><path class="b02cede1-0841-49c3-84b4-dba5452daae3" d="M126.29,202.88h0v-1.15c-5.63-.47-11.21-1.2-16.7-2.21h-.11a5,5,0,0,0-.76,1.08,3.7,3.7,0,0,0-.35,2.15l-.25.41-.22.41a3.44,3.44,0,0,0-.91-.12h-.28a4,4,0,0,0-2.13.63,3.85,3.85,0,0,0-2.51-.92,4.9,4.9,0,0,0-1.42.23,3.9,3.9,0,0,0-1.81.34,3.73,3.73,0,0,0-2.11.3,5.13,5.13,0,0,0-.94-.22h-.21a4.93,4.93,0,0,0-2.79-1.09h-.46a4,4,0,0,0-2.41.7,3.66,3.66,0,0,0-1,.64,3.72,3.72,0,0,0-1.15.76,3.87,3.87,0,0,0-.63.83,2.54,2.54,0,0,0-.39,0,4.1,4.1,0,0,0-1.47-.25,4.89,4.89,0,0,0-1.65-.28h-.33a3.87,3.87,0,0,0-2-.56,5.44,5.44,0,0,0-1.06.1,5.38,5.38,0,0,0-1.33.51,4.21,4.21,0,0,0-1.76,1,4.4,4.4,0,0,0-.41-1.06,3.58,3.58,0,0,0-.2-.71,4.57,4.57,0,0,0,.16-1.16,4.09,4.09,0,0,0-.38-1.69,3.88,3.88,0,0,0-.79-2.17,4.09,4.09,0,0,0-.69-1.67,3.79,3.79,0,0,0-2.3-2.81,4.45,4.45,0,0,0-1.34-1l-.3-.14a3.59,3.59,0,0,0-2.37-.89,3.64,3.64,0,0,0-1.08.17l-.28-.2a4.24,4.24,0,0,0,.33-1.69,1.31,1.31,0,0,0,0-.28,3.26,3.26,0,0,0,.2-1.16,4.32,4.32,0,0,0-.21-1.34,4.58,4.58,0,0,0-.09-.9,4.87,4.87,0,0,0-.58-1.51q-6.47-2.9-12.71-6.26a6.22,6.22,0,0,0,.67,1.1v.09a4.61,4.61,0,0,0,.14.62,4,4,0,0,0,1,1.88,1.31,1.31,0,0,0,.24.23.38.38,0,0,0,0,.15,3.76,3.76,0,0,0,.76,1.05,1.7,1.7,0,0,0,.11.43,5.22,5.22,0,0,0,.29.87,3.85,3.85,0,0,0,.87,1.66l.1.12a4.43,4.43,0,0,0,1,1l.33.48.08.1a3.65,3.65,0,0,0-.69,1.23,4.33,4.33,0,0,0-.23,1.34,3.9,3.9,0,0,0,.27,1.43,3.72,3.72,0,0,0,.49,1,3.42,3.42,0,0,0,.27,1.09,4.54,4.54,0,0,0,1.34,2.07,5.79,5.79,0,0,0,1.11.86,3.86,3.86,0,0,0,1.42,1.84,4,4,0,0,0,4.09.39h.11a3.16,3.16,0,0,0,.44.64,3.48,3.48,0,0,0,.42,1.26l-.25.24v1.49a3.68,3.68,0,0,0,.86,2.34h0l.14.23a4,4,0,0,0,.38,1.1,4.61,4.61,0,0,0,.23,1.47h0a3.34,3.34,0,0,0,.15.73,5,5,0,0,0,1.07,2,5.65,5.65,0,0,0,.51.55,2.74,2.74,0,0,0,.55.47h0a6.67,6.67,0,0,0,1.33,1l.12.06a5.54,5.54,0,0,0,.57.71l.24.24a5.07,5.07,0,0,0,1.2.91,3.71,3.71,0,0,0,1.66.39,4.13,4.13,0,0,0,1.82-.43,5.8,5.8,0,0,0,1.25-.89l.28-.29a4.16,4.16,0,0,0,1-1.57,4.86,4.86,0,0,0,.21-1.06h.82a4.43,4.43,0,0,0,1.34.31,3.75,3.75,0,0,0,2.57.57l.64.31a4.23,4.23,0,0,0,1.57.32,4,4,0,0,0,3.32-1.77v-.09a3.85,3.85,0,0,0,.62-1.1,3.86,3.86,0,0,0,1.34.27,3.8,3.8,0,0,0,3.54.21,4.3,4.3,0,0,0,1-.13,4.06,4.06,0,0,0,1.66-.23,4.79,4.79,0,0,0,.7.58,4,4,0,0,0,3.38.45,4.17,4.17,0,0,0,.81-.36h.09l.82-.35a1.91,1.91,0,0,0,.41-.24,2.81,2.81,0,0,0,.56-.18,3.86,3.86,0,0,0,2.13,0l.34.16a5.71,5.71,0,0,0,1.92.34,4,4,0,0,0,2.93-1.08,3.6,3.6,0,0,0,.91-1.46,4.26,4.26,0,0,0,1,.78,5.15,5.15,0,0,0,.53.61h0a6,6,0,0,0,.61,1.34,4.14,4.14,0,0,0,2.28,1.72l.16.06c.2.11.4.21.61.3s.51.2.77.28l.4.2h2.35l1-1.06a4.46,4.46,0,0,0,1.08-3.55v-4.95A10.26,10.26,0,0,1,126.29,202.88Zm-51.52,3.93h0a3.51,3.51,0,0,1,.65.09A3.51,3.51,0,0,0,74.77,206.81Zm14.72-3a3,3,0,0,1,.43-.36h0a4.17,4.17,0,0,0-.47.36Zm6.06,0a3.71,3.71,0,0,0-.29-.27A2.44,2.44,0,0,1,95.55,203.82ZM96.89,207a3.48,3.48,0,0,1,.09-.79h0a3.8,3.8,0,0,0-.16.76Z"/><path class="b02cede1-0841-49c3-84b4-dba5452daae3" d="M248.05,191.76H199.12c-1.89.7-3.78,1.34-5.68,2a152.77,152.77,0,0,1-19.67,5.12h76.82a4.6,4.6,0,0,0,4.59-4.59V159.14c-2.45,2-4.81,3.88-7.13,5.64Z"/><path class="b02cede1-0841-49c3-84b4-dba5452daae3" d="M255.19,47.74a4.61,4.61,0,0,0-4.59-4.59H11.24a4.61,4.61,0,0,0-4.59,4.59v12a3.94,3.94,0,0,1-.08.87l-.08.77c0,.59-.12,1.33-.16,1.76a5.43,5.43,0,0,0,0,.83c0,.18-.09.87-.11,1.27s0,.71,0,.86a.61.61,0,0,1,0,.19v1a7.22,7.22,0,0,1-.06,1.07v.39a11.08,11.08,0,0,1-.1,1.11,2.39,2.39,0,0,1-.08.7c-.08.17,0,.28,0,.48a3.23,3.23,0,0,1,0,.44,7.47,7.47,0,0,0-.11,1.06V73a.81.81,0,0,1,0,.22c0,.38-.09,1.15-.12,1.5s-.06,1-.1,1.33-.14,1.13-.16,1.56v.84a3.82,3.82,0,0,0-.1.9h0a4.16,4.16,0,0,1-.08.88c0,.12-.1,1.19-.1,1.71v.42a3.08,3.08,0,0,0,.2,1.16v2.61h1a3.89,3.89,0,0,0,.74,1,4.53,4.53,0,0,0,.27.48l.08.11a5.48,5.48,0,0,0,.29.6,4.64,4.64,0,0,0,.38.69,5.17,5.17,0,0,0,.58.73l.21.21a4,4,0,0,0,.24.83A3.73,3.73,0,0,0,9.58,92,3.78,3.78,0,0,0,10.33,93a3.57,3.57,0,0,0,.46.4,2.47,2.47,0,0,0,.44.63,5.4,5.4,0,0,0,.08,1l.08.3a4.88,4.88,0,0,0-.62,1.2,4.64,4.64,0,0,0-.23,1.33,3.83,3.83,0,0,0,.57,2,4.8,4.8,0,0,0-.32.87,4,4,0,0,0,.28,2.75,2.11,2.11,0,0,0,.18.33,3.62,3.62,0,0,0,.5.71,3.38,3.38,0,0,0,.31.35,4.57,4.57,0,0,0,1,.75,3.75,3.75,0,0,0,2,1.7l.09.16h0a3.83,3.83,0,0,0,1.52,2.25l.38.28a4.86,4.86,0,0,0,.81.52c.14,0,.26.12.39.16a3.73,3.73,0,0,0,.9.43,3.79,3.79,0,0,0,1.05.56,3.59,3.59,0,0,0,1.52,2.42,3.61,3.61,0,0,0,1.68,1.66,4.22,4.22,0,0,0,.72,1l.14.25a1.87,1.87,0,0,0,.15.32,2.65,2.65,0,0,0,.3.56,7.88,7.88,0,0,0,.51.73,4.21,4.21,0,0,0,.43,1.34,3.53,3.53,0,0,0,2.15,2.52,3.84,3.84,0,0,0,.07,1.62,3.14,3.14,0,0,0,.48,1.07.29.29,0,0,1,0,.13A4.13,4.13,0,0,0,29.55,127a3.64,3.64,0,0,0,.4.48,3.54,3.54,0,0,0,1.22.8,3.53,3.53,0,0,0,.95,2.68l.17.2a3.9,3.9,0,0,0,3,1.57h.08l.07.08a4.08,4.08,0,0,0,1.47,1.56l.6.35a3.92,3.92,0,0,0,1.74.43h.15a4,4,0,0,0,.9-.11,3.48,3.48,0,0,0-.3,1.42v.45a5.66,5.66,0,0,0,.12,1.17,4.39,4.39,0,0,0-.73,3.13,1.64,1.64,0,0,0-.16.29,2,2,0,0,0-.1.21,3.67,3.67,0,0,0-.83,1.08,4,4,0,0,0-.42,1.79v.55a3.6,3.6,0,0,0-1,1.34h0a4,4,0,0,0-.65,2.14,5.14,5.14,0,0,0,.08.88,4.42,4.42,0,0,0,.61,1.73,3.94,3.94,0,0,0,.23,2.92,4,4,0,0,0,.39,1.34,3.76,3.76,0,0,0,.31.5l-.22.13a4.36,4.36,0,0,0-1.34,1.55l-.1.2a3.74,3.74,0,0,0-.29.72c-.06,0-.13.12-.2.2a4.39,4.39,0,0,0-.81,1.11,3.84,3.84,0,0,0,.18,3.62.61.61,0,0,1,.07.1v.08a3.81,3.81,0,0,0-1,2.6,3.7,3.7,0,0,0,.14,1,4.54,4.54,0,0,0-.14,1.1,4.17,4.17,0,0,0,1.14,2.94,3.69,3.69,0,0,0,2.37,1.07l.25.1a4.72,4.72,0,0,0,1.34,1.33,4.78,4.78,0,0,0,.54.86,4.5,4.5,0,0,0,2,1.43l.58.19h.59a4.48,4.48,0,0,0,2.2-.62l.28-.14a6.84,6.84,0,0,0,1-.54,3.15,3.15,0,0,0,.67-.59,7.09,7.09,0,0,1,0-6.78,6.92,6.92,0,0,1,6.36-3.9,10.75,10.75,0,0,1,2.76.39l.33.08a3.81,3.81,0,0,0-1.34-1.66,2.62,2.62,0,0,0-.32-.23h0a6.17,6.17,0,0,0-1-.64l-.18-.09a3.79,3.79,0,0,0-3.21-.08h-.08a4.23,4.23,0,0,0-1.71,1,3.62,3.62,0,0,0-1.11,2.06,6,6,0,0,0-1,1.07h0a3.81,3.81,0,0,0-.89.71h-.41a3.71,3.71,0,0,0-2.22.75,3.29,3.29,0,0,0-.47-.59,6.24,6.24,0,0,0,.36-1.33,4.66,4.66,0,0,0-.09-2.43h0a3.54,3.54,0,0,0-.11-.44A5,5,0,0,0,46.16,158v-.28a5.11,5.11,0,0,0-.15-1.1,3.69,3.69,0,0,0-.5-1.15V155a4.44,4.44,0,0,0-.69-2.4l-.19-.27v-.1a.43.43,0,0,0,0-.16c.08-.35.15-.81.16-.89a4.94,4.94,0,0,0,.08-.87,3,3,0,0,0-.08-.73,4.64,4.64,0,0,0,.67-2.1,8,8,0,0,0,0-1v-.67a3.57,3.57,0,0,0,.64-2.07,4.89,4.89,0,0,0,.42-1.68v-.36a4.63,4.63,0,0,0,.77-1.86v-.1a4.45,4.45,0,0,0,.24-1.34,4.91,4.91,0,0,0,.38-.55,4,4,0,0,0,.61-2.2,4.13,4.13,0,0,0,.45-1.62,5,5,0,0,0,.28-1.53h0a5.2,5.2,0,0,0,.09-1A4.07,4.07,0,0,0,49,130a3.94,3.94,0,0,0-1.9-2.17l-.34-.15a3.65,3.65,0,0,0-2.68-.45,3.87,3.87,0,0,0-1,.16,5.14,5.14,0,0,0-1.09.22,4,4,0,0,0-.77-1.33A3.91,3.91,0,0,0,39,124.58a3.82,3.82,0,0,0-1-.33h-.11a3.89,3.89,0,0,0-1.81-1.34,3.32,3.32,0,0,0-.68-.72,4.23,4.23,0,0,0,.08-.79,3.76,3.76,0,0,0-.43-1.74,4.61,4.61,0,0,0-.8-1.11,4.77,4.77,0,0,0-.6-.51c-.11-.2-.2-.38-.31-.54a3.74,3.74,0,0,0-1.22-1.34L32,116a3.63,3.63,0,0,0-.52-1.19,4.79,4.79,0,0,0-.7-.91l-.16-.15A4.19,4.19,0,0,0,29.55,112a5.22,5.22,0,0,0-.94-1.34,6,6,0,0,0-.72-.61h0a4.16,4.16,0,0,0-.48-.75,4.05,4.05,0,0,0-.81-1.65,4.18,4.18,0,0,0-1-1.54A4.13,4.13,0,0,0,23.54,105l-.46-.13a3.79,3.79,0,0,0-1.33-.55,3.92,3.92,0,0,0-1.17-2,4.14,4.14,0,0,0-.35-.38l-.1-.11a4.33,4.33,0,0,0-.47-.4,4.23,4.23,0,0,0,.08-.79v-.19a3.61,3.61,0,0,0-1-2.49,4.4,4.4,0,0,0,.43-2.5v-.19a4.31,4.31,0,0,0-.51-1.85,3.86,3.86,0,0,0,0-.68A4.08,4.08,0,0,0,18,90.52a5.34,5.34,0,0,0-.76-.89c-.05-.15-.11-.3-.17-.44A5.19,5.19,0,0,0,16.22,88h0q0-.31-.09-.63A4.06,4.06,0,0,0,15,85.29a3.51,3.51,0,0,0-1.18-1.15,3.83,3.83,0,0,0-.25-.44,3.81,3.81,0,0,0-.9-1.46,3.86,3.86,0,0,0-.6-1.2h0v-.18a9.22,9.22,0,0,1,.09-1.19,5.88,5.88,0,0,0,.11-.94V78.1c0-.24.06-.81.1-1.12s.14-1.34.18-1.86a5,5,0,0,1,.07-1,9.28,9.28,0,0,0,.08-1.05v-.25a8.07,8.07,0,0,1,.12-1.07c0-.16,0-.5,0-.62V71c.06-.43.14-1.44.16-1.56V69c0-.27.09-1.19.09-1.54a.89.89,0,0,1,0-.23,7.53,7.53,0,0,0,.07-.83v-.63a2.9,2.9,0,0,1,.08-.87,5.88,5.88,0,0,0,.1-1.2c0-.42.1-1,.15-1.57l.07-.76q.09-.73.12-1.47V50.27H248.07v65.65a72.92,72.92,0,0,1,7.13,3.84v-72ZM38.26,149.23h0l.19-.2Zm9.52-20.66a4.5,4.5,0,0,0-.65-.66,5.14,5.14,0,0,1,.66.66Zm-6.07-.84h0a3.72,3.72,0,0,0-.17-.75,5.88,5.88,0,0,1,.19.75Zm-.22,3.69h0a.14.14,0,0,1,0-.09.11.11,0,0,0,0,.08Zm-6.7-2.34h0a3.73,3.73,0,0,1-.12-.94,3.69,3.69,0,0,0,.06.94Zm-.92-10.44a2.82,2.82,0,0,0-.15-.57,3.56,3.56,0,0,1,.08.57Zm-7,1.21a4.84,4.84,0,0,0,.19.65A3.72,3.72,0,0,1,26.83,119.85Zm0-.29h0a1.93,1.93,0,0,1,0-.34c0,.11-.08.23-.11.34ZM15,103.64a2.11,2.11,0,0,1-.51-.12h0a2.64,2.64,0,0,0,.4.12ZM13.22,83.31a3.94,3.94,0,0,0-.36-.45h0A3.94,3.94,0,0,1,13.22,83.31Z"/></g></g></svg>