<svg xmlns="http://www.w3.org/2000/svg" viewBox="0 0 60.74 78"><defs><style>.a9e92ad6-f2e7-470f-83a1-af6f85cad76f{fill:#262626;}</style></defs><title>Form</title><g id="be3a3763-ac78-4ae3-9528-202837fe0e8a" data-name="Layer 2"><g id="e7728358-dc73-4b13-9fb3-6381267c3b05" data-name="form"><path class="a9e92ad6-f2e7-470f-83a1-af6f85cad76f" d="M53.16,16.3,38.43.35A.94.94,0,0,0,37.65,0H1.13A1.15,1.15,0,0,0,0,1.13v63.1a1.15,1.15,0,0,0,1.13,1.13H33.29c.09.09.09.18.18.26a12.29,12.29,0,0,0,9.67,4.62,11.93,11.93,0,0,0,7-2.18L59.18,78l1.56-1.48-8.89-9.94a12.29,12.29,0,0,0,1.57-15.77V17A.94.94,0,0,0,53.16,16.3ZM2.27,63.1V2.18H37.21L51,17.08H35.12V7.41H32.94v10.8a1.17,1.17,0,0,0,1.14,1.14H51.33v29a.09.09,0,0,1-.09-.09,1.83,1.83,0,0,0-.52-.35,1.33,1.33,0,0,1-.43-.35,1.4,1.4,0,0,0-.61-.34c-.09-.09-.27-.18-.35-.27s-.44-.26-.61-.34-.18-.09-.35-.18l-.7-.26c-.09,0-.17-.09-.35-.09l-.78-.26c-.09,0-.18-.09-.26-.09a2.8,2.8,0,0,0-.79-.17h-.08c-.35-.09-.61-.09-1-.17a2.37,2.37,0,0,1-.79-.09h-1.3c-.27,0-.53.09-.79.09a.72.72,0,0,0-.35.08,2.45,2.45,0,0,0-.78.18c-.09,0-.26.08-.35.08a2.57,2.57,0,0,1-.7.18.75.75,0,0,0-.35.17c-.26.09-.43.18-.69.26s-.27.18-.44.18l-.52.26a4.13,4.13,0,0,1-.61.35c-.18.09-.26.17-.44.26a6.48,6.48,0,0,0-1,.7c-.26.26-.61.52-.87.78l-.26.26-.52.53c-.09.08-.18.26-.26.34s-.27.35-.44.53a1.79,1.79,0,0,0-.26.43c-.09.18-.26.35-.35.53s-.17.26-.26.43l-.26.52c-.09.18-.18.27-.18.44a1.32,1.32,0,0,0-.17.52c-.09.18-.09.35-.18.53s-.08.34-.17.52a1.06,1.06,0,0,0-.09.52c0,.18-.08.35-.08.53s-.09.34-.09.52a1.06,1.06,0,0,1-.09.52c0,.35-.09.79-.09,1.13v.44a1.44,1.44,0,0,0,.09.61v.44c0,.17.09.43.09.61s.09.26.09.43a1.51,1.51,0,0,0,.17.61c0,.18.09.26.09.44s.08.35.17.61.09.35.18.43l.26.53c0,.08.08.08.08.17H2.27Zm47.32,2.52h0a10.23,10.23,0,0,1-14.38-1.48,3.57,3.57,0,0,1-.44-.61,10.27,10.27,0,0,1,1.92-13.77c.26-.17.52-.43.78-.61.09-.08.18-.08.27-.17s.43-.26.61-.35.17-.09.26-.09a2.41,2.41,0,0,0,.7-.35c.08,0,.08-.08.17-.08l.78-.26h.09a10.42,10.42,0,0,1,10,2.52l.09.09c.26.26.44.52.7.78a1.65,1.65,0,0,0,.35.44A10.23,10.23,0,0,1,49.59,65.62Z"/><rect class="a9e92ad6-f2e7-470f-83a1-af6f85cad76f" x="8.37" y="17.08" width="16.91" height="2.18"/><rect class="a9e92ad6-f2e7-470f-83a1-af6f85cad76f" x="8.37" y="27.98" width="33.9" height="2.18"/><rect class="a9e92ad6-f2e7-470f-83a1-af6f85cad76f" x="8.37" y="39.39" width="33.9" height="2.18"/><path class="a9e92ad6-f2e7-470f-83a1-af6f85cad76f" d="M37.91,51.24a8.57,8.57,0,0,0-3,7.41L37,58.39a6.07,6.07,0,0,1,2.27-5.49,6.39,6.39,0,0,1,3-1.31l-.27-2.18A9.28,9.28,0,0,0,37.91,51.24Z"/></g></g></svg>