<svg xmlns="http://www.w3.org/2000/svg" viewBox="0 0 80 80"><title>Translate</title><path d="M76.88,28.69H69.44a1.67,1.67,0,1,1,0-3.33H75.1A27.56,27.56,0,0,0,72.35,16C68.66,8.76,62.09,4.84,52.85,4.34A1.67,1.67,0,0,1,53,1c13.16.72,19.42,7.78,22.35,13.58A30.36,30.36,0,0,1,78.55,27,1.67,1.67,0,0,1,76.88,28.69Z"/><path d="M26.16,79h-.09C12.91,78.27,6.65,71.21,3.72,65.41A30.36,30.36,0,0,1,.55,53a1.67,1.67,0,0,1,1.67-1.67H9.66a1.67,1.67,0,1,1,0,3.33H4A27.56,27.56,0,0,0,6.75,64C10.44,71.24,17,75.16,26.25,75.66a1.67,1.67,0,0,1,1.57,1.76A1.65,1.65,0,0,1,26.16,79Z"/><path d="M38.1,1.26H7.9A7.19,7.19,0,0,0,.71,8.46V38.65a7.19,7.19,0,0,0,7.19,7.2H31.1V38.44a6.81,6.81,0,0,1,.07-1A17.56,17.56,0,0,1,23,34.28a18.54,18.54,0,0,1-11.12,3.33,1.67,1.67,0,1,1,0-3.34A15.69,15.69,0,0,0,20.44,32a19.34,19.34,0,0,1-2.64-3.63,24.9,24.9,0,0,1-2.72-7.54H11.89a1.67,1.67,0,1,1,0-3.33h9.45V10.72a1.67,1.67,0,0,1,3.33,0v6.79h9.14a1.67,1.67,0,1,1,0,3.33H30.93a25.1,25.1,0,0,1-2.71,7.54A19.8,19.8,0,0,1,25.58,32a15,15,0,0,0,6.89,2.2,7.18,7.18,0,0,1,5.82-3h7V8.46A7.19,7.19,0,0,0,38.1,1.26Z"/><path d="M20.75,26.83A15.75,15.75,0,0,0,23,29.89a16.19,16.19,0,0,0,2.31-3.16,21.57,21.57,0,0,0,2.22-5.89H18.48A21.42,21.42,0,0,0,20.75,26.83Z"/><polygon points="52.6 59.57 59.32 59.73 56.03 50.66 52.6 59.57"/><path d="M71.2,34.16H41a7.19,7.19,0,0,0-7.19,7.2V71.55A7.19,7.19,0,0,0,41,78.75H71.2a7.19,7.19,0,0,0,7.19-7.2V41.36A7.19,7.19,0,0,0,71.2,34.16ZM64.84,69.38a1.81,1.81,0,0,1-.65.11,1.9,1.9,0,0,1-1.78-1.25l-1.87-5.15-9.21-.22-2.27,5.9a1.68,1.68,0,0,1-1.55,1.07,1.77,1.77,0,0,1-.6-.11,1.67,1.67,0,0,1-1-2.16l8.48-22a1.9,1.9,0,0,1,3.67-.36L66,66.94A1.9,1.9,0,0,1,64.84,69.38Z"/></svg>