<svg xmlns="http://www.w3.org/2000/svg" viewBox="0 0 78 59.05"><defs><style>.ab17fc16-90f6-412c-a1ec-e34b9da52568{fill:#262626;}</style></defs><title>Info</title><g id="f1090340-096c-4e11-ba8e-faac5275b6e2" data-name="Layer 2"><g id="a5d0844f-4a79-4087-b96c-1ab9701e1ac3" data-name="legal info"><path class="ab17fc16-90f6-412c-a1ec-e34b9da52568" d="M50.72,29.45a12.51,12.51,0,0,0,24.92,0Zm4-2.27h17L63.19,9.73l-8.5,17.45ZM2.31,29.45a12.51,12.51,0,0,0,24.91,0Zm4-2.27h17L14.78,9.73,6.28,27.18Zm47,31.87H24.69a1.14,1.14,0,1,1,0-2.28H37.84V8.28H16.58l9.21,18.9h2.63a1.14,1.14,0,0,1,1.14,1.14A14.78,14.78,0,0,1,0,28.32a1.14,1.14,0,0,1,1.14-1.14H3.77l10-20.54a1.11,1.11,0,0,1,1-.63H37.87V1.14A1.13,1.13,0,0,1,39,0a1.15,1.15,0,0,1,1.14,1.14V6H63.21a1.12,1.12,0,0,1,1,.63l10,20.54h2.63A1.14,1.14,0,0,1,78,28.32a14.78,14.78,0,0,1-29.56,0,1.14,1.14,0,0,1,1.14-1.14h2.63l9.21-18.9H40.16V56.79H53.31a1.13,1.13,0,0,1,1.14,1.14,1.21,1.21,0,0,1-1.18,1.12Z"/></g></g></svg>