<svg xmlns="http://www.w3.org/2000/svg" viewBox="0 0 78 78"><defs><style>.b1c3db04-aaa9-4703-b137-f8ab9cc62d6e{fill:#231f20;}</style></defs><title>Asset 6</title><g id="a72eaab9-470c-4958-bbb9-823679cadde7" data-name="Layer 2"><g id="e1890c41-941d-4940-b061-56353d281400" data-name="Layer 1"><path d="M39,4A35,35,0,1,1,4,39,35,35,0,0,1,39,4m0-4A39,39,0,1,0,78,39,39,39,0,0,0,39,0Z"/></g><g id="fd799024-8eba-48b8-b0e2-92f94fa2a2f3" data-name="Layer 3"><path class="b1c3db04-aaa9-4703-b137-f8ab9cc62d6e" d="M23.88,57.85l1.94-1.66a1.2,1.2,0,0,1,1.94.36,14.63,14.63,0,0,0,10.73,5c5.48,0,10.37-3.31,10.37-9,0-4.9-3.81-9.43-12.74-9.43h-4c-.79,0-1.36-.43-1.36-1.59V39.78c0-1.16.36-1.59,1.51-1.59h4c7.7,0,11.45-4,11.45-8.71,0-5.69-4.32-9.15-9.43-9.15A12.32,12.32,0,0,0,28.77,25a1.21,1.21,0,0,1-1.87.15l-1.73-1.37a1.29,1.29,0,0,1,0-1.87s5.19-6.34,13-6.34C46.92,15.58,53,20.69,53,28.76c0,5.54-4.18,9.86-7.42,11.37v.22C49,41.79,54.26,45.82,54.26,52c0,7.85-6,14-16,14-8.86,0-12.89-4.61-14.48-6.41A1.18,1.18,0,0,1,23.88,57.85Z"/></g></g></svg>