<svg xmlns="http://www.w3.org/2000/svg" xmlns:xlink="http://www.w3.org/1999/xlink" viewBox="0 0 400.02 239"><defs><style>.a5cfe04b-6683-4e09-921e-d87b5c7997af{fill:url(#f12cdbf2-2053-4820-b461-67860289ab54);}</style><radialGradient id="f12cdbf2-2053-4820-b461-67860289ab54" cx="62.1" cy="-69" r="494.29" gradientTransform="matrix(1, 0, 0, -1, 0, 240)" gradientUnits="userSpaceOnUse"><stop offset="0" stop-color="#00c6d7"/><stop offset="0.05" stop-color="#15e9d7"/><stop offset="0.18" stop-color="#46e2d1"/><stop offset="0.35" stop-color="#83d9ca"/><stop offset="0.5" stop-color="#b3d2c4"/><stop offset="0.64" stop-color="#d6cdc0"/><stop offset="0.76" stop-color="#ebcabe"/><stop offset="0.83" stop-color="#f3c9bd"/><stop offset="1" stop-color="#f3f4bd"/></radialGradient></defs><title>Landscape Line Drawing</title><g id="e890bac8-05e6-4013-a7ad-b4ac4a049d58" data-name="Layer 2"><g id="e09de239-3215-4a0d-9d78-6025686d7523" data-name="Layer 1"><path class="a5cfe04b-6683-4e09-921e-d87b5c7997af" d="M323.28,199a1,1,0,0,1,0-2h5.51a1,1,0,0,1,0,2Zm-7.72,0a1,1,0,0,0,0-2H300.13a1,1,0,0,0,0,2Zm-23.15-2H268.16a1,1,0,0,0,0,2h24.25a1,1,0,0,0,0-2Zm-30.86,2a1,1,0,0,0,0-2h-2.2a1,1,0,0,0,0,2Zm-9.92,0a1,1,0,0,0,0-2h-5.51a1,1,0,0,0,0,2ZM212,197H173.37a1,1,0,0,0,0,2H212a1,1,0,0,0,0-2Zm-44.09,2a1,1,0,0,0,0-2h-3.31a1,1,0,0,0,0,2Zm-9.92-2H126a1,1,0,0,0,0,2h32a1,1,0,0,0,0-2Zm-37.48,2a1,1,0,0,0,0-2h-3.31a1,1,0,1,0,0,2Zm-27.55-2H88.5a1,1,0,0,0,0,2h4.41a1,1,0,0,0,0-2Zm-11,2a1,1,0,0,0,0-2H72a1,1,0,0,0,0,2Zm8.81,11H54.33a1,1,0,1,0,0,2H90.7a1,1,0,0,0,0-2Zm12.13,2a1,1,0,0,0,0-2H98.42a1,1,0,0,0,0,2Zm6.71-1a1,1,0,0,0,1,1h14.33a1,1,0,0,0,0-2H110.54A1,1,0,0,0,109.54,211Zm25.15,0a1,1,0,0,0-1-1h-1.1a1,1,0,0,0,0,2h1.1A1,1,0,0,0,134.69,211Zm9,0a1,1,0,0,0,1,1h29.76a1,1,0,1,0,0-2H144.71A1,1,0,0,0,143.71,211Zm39.58-1a1,1,0,1,0,0,2h1.1a1,1,0,0,0,0-2ZM211,211a1,1,0,0,0,1,1H235.1a1,1,0,1,0,0-2H212A1,1,0,0,0,211,211Zm45,0a1,1,0,0,0-1-1H242.82a1,1,0,0,0,0,2h12.12A1,1,0,0,0,255.94,211Zm12.22,1a1,1,0,0,0,0-2h-4.41a1,1,0,0,0,0,2Zm45.09-1a1,1,0,0,0-1-1H296.82a1,1,0,0,0,0,2h15.43A1,1,0,0,0,313.25,211Zm6.72,1a1,1,0,0,0,0-2h-1.1a1,1,0,0,0,0,2Zm36.48,11H313.51a1,1,0,0,0,0,2h42.94a1,1,0,1,0,0-2Zm-57.26,2h5.2a1,1,0,0,0,0-2h-5.2a1,1,0,0,0,0,2Zm69.5-2h-1.54a1,1,0,0,0,0,2h1.54a1,1,0,1,0,0-2Zm-78.61,0H273.16a1,1,0,0,0,0,2h16.92a1,1,0,0,0,0-2Zm-44.64,2a1,1,0,0,0,0-2h-1.13a1,1,0,0,0,0,2ZM234,224a1,1,0,0,0-1-1H202.6a1,1,0,0,0,0,2H233A1,1,0,0,0,234,224Zm-40.46-1h-1.13a1,1,0,0,0,0,2h1.13a1,1,0,1,0,0-2Zm-53,0a1,1,0,0,0,0,2h23.68a1,1,0,0,0,0-2Zm-7.89,0H120.3a1,1,0,0,0,0,2h12.4a1,1,0,0,0,0-2Zm-26.93,1a1,1,0,0,0,1,1h4.51a1,1,0,0,0,0-2h-4.51A1,1,0,0,0,105.77,224Zm-28.31-1H61.68a1,1,0,0,0,0,2H77.46a1,1,0,0,0,0-2Zm-37.61,0H14.91a1,1,0,1,0,0,2H39.85a1,1,0,1,0,0-2Zm15.06,0H53.78a1,1,0,1,0,0,2h1.13a1,1,0,0,0,0-2Zm270.8,14H311.76a1,1,0,0,0,0,2h13.95a1,1,0,1,0,0-2Zm-20.89,0h-5.51a1,1,0,1,0,0,2h5.51a1,1,0,0,0,0-2Zm-26.46,0H254.11a1,1,0,0,0,0,2h24.25a1,1,0,0,0,0-2Zm-30.86,0h-2.21a1,1,0,1,0,0,2h2.21a1,1,0,0,0,0-2Zm-9.92,0h-9.92a1,1,0,1,0,0,2h9.92a1,1,0,1,0,0-2ZM188,237H159.32a1,1,0,0,0,0,2H188a1,1,0,1,0,0-2Zm-34.17,0H150.5a1,1,0,0,0,0,2h3.31a1,1,0,0,0,0-2Zm-9.92,0h-32a1,1,0,0,0,0,2h32a1,1,0,0,0,0-2Zm-37.48,0H96.49a1,1,0,0,0,0,2h9.92a1,1,0,0,0,0-2Zm-40.78,0H61.22a1,1,0,0,0,0,2h4.41a1,1,0,0,0,0-2Zm-11,0H44.69a1,1,0,0,0,0,2h9.92a1,1,0,1,0,0-2Zm283-38a1,1,0,0,0,0-2h-1.1a1,1,0,0,0,0,2ZM64.25,199a1,1,0,0,0,0-2h-1.1a1,1,0,1,0,0,2Zm194.14-75.46a.51.51,0,0,0,.17,0,1,1,0,0,0,.94-.77.92.92,0,0,0-.63-1.2c-4.89-1.16-8.77-4.5-9.77-7.25v-2.67a15.71,15.71,0,0,0,6.71,4.65.69.69,0,0,0,.24,0,1,1,0,0,0,.92-.69.94.94,0,0,0-.53-1.26c-3.12-1-6.34-3.26-7.34-6.22v-2.36c1,1.85,3.58,3.25,5.9,4a.69.69,0,0,0,.24.05,1,1,0,0,0,.92-.69,1,1,0,0,0-.66-1.26,12,12,0,0,1-6.68-5.55,1,1,0,0,0-.54-1,2.07,2.07,0,0,0-1.14,0,1,1,0,0,0-.53,1,12,12,0,0,1-6.67,5.55,1,1,0,0,0,.3,2,2.2,2.2,0,0,0,.44-.05,16.19,16.19,0,0,0,6.41-4.29v1.81c0,.22-.4.51-.36.8a13.48,13.48,0,0,1-7.55,6.26,1,1,0,0,0-.68,1.26,1,1,0,0,0,.94.69,2.1,2.1,0,0,0,.43,0,16.18,16.18,0,0,0,7.22-4.94v2.1c0,.22-.4.52-.35.81a16.07,16.07,0,0,1-10,7.3,1,1,0,0,0-.77,1.2,1,1,0,0,0,1,.77,2.19,2.19,0,0,0,.36,0,18,18,0,0,0,9.79-6.09v2.16c0,.22-.4.51-.36.8a13.48,13.48,0,0,1-7.55,6.26,1,1,0,0,0-.68,1.26,1,1,0,0,0,.94.69,2.1,2.1,0,0,0,.43-.05,16.23,16.23,0,0,0,7.22-4.93v2.1c0,.22-.4.51-.36.8a13.52,13.52,0,0,1-7.55,6.26,1,1,0,0,0-.68,1.26,1,1,0,0,0,.94.69,2.1,2.1,0,0,0,.43-.05,16.26,16.26,0,0,0,7.22-4.94v2.1c0,.22-.4.51-.36.8a13.48,13.48,0,0,1-7.55,6.26,1,1,0,0,0-.68,1.26,1,1,0,0,0,.94.69,2.1,2.1,0,0,0,.43-.05,16.23,16.23,0,0,0,7.22-4.93v13.19a1,1,0,0,0,2,0v-12.9a15.65,15.65,0,0,0,6.71,4.64.69.69,0,0,0,.24.05,1,1,0,0,0,.92-.69.94.94,0,0,0-.53-1.26c-3.12-1-6.34-3.25-7.34-6.22v-2.65a15.71,15.71,0,0,0,6.71,4.65.69.69,0,0,0,.24.05,1,1,0,0,0,.92-.69.94.94,0,0,0-.53-1.26c-3.12-1-6.34-3.26-7.34-6.22v-2.65a15.71,15.71,0,0,0,6.71,4.65.69.69,0,0,0,.24,0,1,1,0,0,0,.92-.69.94.94,0,0,0-.53-1.26c-3.12-1-6.34-3.26-7.34-6.22v-2.7A17.29,17.29,0,0,0,258.39,123.54Zm22.19,17.37a1.22,1.22,0,0,0,.26,0,1,1,0,0,0,.19-2c-4.9-1.16-7.94-4.5-9.94-7.25v-2.66A16.19,16.19,0,0,0,278,133.7a1.33,1.33,0,0,0,.34.05,1,1,0,0,0,.27-1.95c-3.12-1-5.51-3.26-7.51-6.22v-2.35a16.38,16.38,0,0,0,6.1,4,1.33,1.33,0,0,0,.34,0,1,1,0,0,0,1-.69,1,1,0,0,0-.64-1.26,12,12,0,0,1-6.67-5.55,1,1,0,0,0-.53-1,1,1,0,0,0-.56-.08,1,1,0,0,0-.57.08,1,1,0,0,0-.53,1,11.94,11.94,0,0,1-6.67,5.55,1,1,0,0,0,.3,2,.69.69,0,0,0,.24,0c2.44-.78,4.22-2.3,6.22-4.29v1.81c0,.22-.2.51-.16.8a13.24,13.24,0,0,1-7.45,6.26,1,1,0,0,0-.63,1.26,1,1,0,0,0,1,.69.79.79,0,0,0,.25,0,15.69,15.69,0,0,0,7-4.93v2.1c0,.22-.2.52-.15.81a15.86,15.86,0,0,1-9.88,7.3,1,1,0,0,0-.72,1.2,1,1,0,0,0,1,.77.51.51,0,0,0,.17,0,17.48,17.48,0,0,0,9.61-6.09V137c0,.22-.2.51-.16.8a13.24,13.24,0,0,1-7.45,6.26,1,1,0,0,0-.63,1.26,1,1,0,0,0,1,.69.79.79,0,0,0,.25,0,15.63,15.63,0,0,0,7-4.94v2.1c0,.22-.2.51-.16.79a13.28,13.28,0,0,1-7.45,6.26,1,1,0,0,0-.63,1.26,1,1,0,0,0,1,.69.79.79,0,0,0,.25-.05,15.71,15.71,0,0,0,7-4.94v2.1c0,.22-.2.51-.16.8a13.28,13.28,0,0,1-7.45,6.26,1,1,0,0,0-.63,1.26,1,1,0,0,0,1,.69.79.79,0,0,0,.25-.05,15.69,15.69,0,0,0,7-4.93v2.25a5.28,5.28,0,0,0,0,.58,13.24,13.24,0,0,1-7.45,6.26,1,1,0,0,0-.63,1.26,1,1,0,0,0,1,.69.79.79,0,0,0,.25-.05,15.76,15.76,0,0,0,6.91-4.79v2.17a5.28,5.28,0,0,0,0,.58,13.28,13.28,0,0,1-7.45,6.26,1,1,0,0,0-.63,1.26,1,1,0,0,0,1,.69.79.79,0,0,0,.25,0,15.76,15.76,0,0,0,6.91-4.79v2.17a5.28,5.28,0,0,0,0,.58,13.28,13.28,0,0,1-7.45,6.26,1,1,0,0,0-.63,1.26,1,1,0,0,0,1,.69.79.79,0,0,0,.25,0,15.76,15.76,0,0,0,6.91-4.79v7a1,1,0,0,0,2,0v-7a16.14,16.14,0,0,0,7,4.79,1.33,1.33,0,0,0,.34,0,1,1,0,0,0,1-.69,1,1,0,0,0-.64-1.26,13.5,13.5,0,0,1-7.54-6.26c0-.21-.16-.4-.16-.58v-2.17a16.11,16.11,0,0,0,7,4.79,1.33,1.33,0,0,0,.34,0,1,1,0,0,0,1-.69,1,1,0,0,0-.64-1.26,13.5,13.5,0,0,1-7.54-6.26c0-.2-.16-.4-.16-.58v-2.17a16.11,16.11,0,0,0,7,4.79,1.33,1.33,0,0,0,.34.05,1,1,0,0,0,1-.69,1,1,0,0,0-.64-1.26,13.48,13.48,0,0,1-7.54-6.27c0-.21-.16-.4-.16-.58v-2a16.19,16.19,0,0,0,6.91,4.64,1.33,1.33,0,0,0,.34,0,1,1,0,0,0,.27-1.95c-3.12-1-5.51-3.25-7.51-6.22v-2.65a16.31,16.31,0,0,0,6.91,4.65,1.33,1.33,0,0,0,.34.05,1,1,0,0,0,.27-2c-3.12-1-5.52-3.26-7.52-6.22v-2.65a16.31,16.31,0,0,0,6.91,4.65,1.33,1.33,0,0,0,.34.05,1,1,0,0,0,.27-2c-3.12-1-5.52-3.26-7.52-6.22v-2.7A17.61,17.61,0,0,0,280.58,140.91ZM73.19,167.53a2.28,2.28,0,0,0,.44.05,1.09,1.09,0,0,0,1-.68,1,1,0,0,0-.6-1.26,13.54,13.54,0,0,1-7.48-6.26c0-.29.54-.59-.46-.81v-1.88a16.68,16.68,0,0,0,7,4.74,2.12,2.12,0,0,0,.44,0,1.09,1.09,0,0,0,1-.68,1,1,0,0,0-.6-1.26,13.54,13.54,0,0,1-7.48-6.26c0-.21.66-.42-.34-.61v-2.26a16.47,16.47,0,0,0,7.09,4.88,2.12,2.12,0,0,0,.44.05,1.08,1.08,0,0,0,1-.69,1,1,0,0,0-.6-1.26,13.54,13.54,0,0,1-7.48-6.26c0-.29.54-.59-.46-.81v-1.75a16.61,16.61,0,0,0,6.3,4.23,2.12,2.12,0,0,0,.44,0,1.09,1.09,0,0,0,1-.68,1,1,0,0,0-.6-1.26,11.65,11.65,0,0,1-6.44-5.55,1,1,0,0,0-.53-1,.87.87,0,0,0-.55-.07,1.05,1.05,0,0,0-.55.07,1,1,0,0,0-.54,1,11.62,11.62,0,0,1-6.46,5.55,1,1,0,0,0,.32,1.94c.1,0,0,0,.07,0,2.22-.74,4.54-2.11,5.54-3.91v2.31c-1,3-4,5.2-7,6.19a.94.94,0,0,0-.51,1.26,1.08,1.08,0,0,0,1,.69c.1,0,0,0,.1-.05,2.54-.84,5.36-2.45,6.36-4.56v2c0,.17.14.36.17.56a12.77,12.77,0,0,1-7.12,6.26,1,1,0,0,0-.57,1.26,1,1,0,0,0,1,.68c.1,0,0,0,.08-.05,2.59-.86,5.46-2.52,6.46-4.71v2.72c-1,2.95-4,5.2-7,6.2a.94.94,0,0,0-.51,1.26,1.07,1.07,0,0,0,1,.68c.1,0,0,0,.1,0,2.54-.84,5.36-2.45,6.36-4.56v2.6c-1,2.95-4,5.2-7,6.2a.94.94,0,0,0-.51,1.26,1.07,1.07,0,0,0,1,.68c.1,0,0,0,.1,0,2.54-.84,5.36-2.45,6.36-4.56v9.47a9,9,0,0,1-2,.38.92.92,0,0,0-.68,1.16,1.07,1.07,0,0,0,1,.82.75.75,0,0,0,.21,0c3.37-.6,6.82-1.17,10.22-1.7a1,1,0,0,0,.84-1.14,1.28,1.28,0,0,0-1.39-.84c-2,.31-3.28.64-6.28,1v-9.45a16.47,16.47,0,0,0,7.09,4.88,2.2,2.2,0,0,0,.44.05,1.07,1.07,0,0,0,1-.68,1,1,0,0,0-.6-1.26,13.54,13.54,0,0,1-7.48-6.26c0-.29.54-.59-.46-.81v-2A16.26,16.26,0,0,0,73.19,167.53Zm312.91-34.7v-.42c0-.55-.66-1-1.21-1a1.14,1.14,0,0,0-1,.62,1,1,0,0,0-.33.78,10,10,0,0,1-5.59,4.6,1,1,0,0,0,.29,2,2.94,2.94,0,0,0,.51-.05c2-.63,3.35-1.82,5.35-3.38V137c-1,.2-.43.44-.41.69a11.45,11.45,0,0,1-6.36,5.21,1,1,0,0,0-.7,1.26,1,1,0,0,0,.93.69,2.83,2.83,0,0,0,.5-.05,16.49,16.49,0,0,0,6-3.93v6.55c-1,.2-.43.44-.41.69a11.45,11.45,0,0,1-6.36,5.21,1,1,0,0,0-.7,1.26,1,1,0,0,0,.93.69,2.83,2.83,0,0,0,.5,0,16.62,16.62,0,0,0,6-3.93v1.34c-1,.2-.43.44-.41.69a11.45,11.45,0,0,1-6.36,5.21,1,1,0,0,0-.7,1.26,1,1,0,0,0,.93.69,2.83,2.83,0,0,0,.5-.05,16.49,16.49,0,0,0,6-3.93v12.74a1,1,0,0,0,2,0V156.77c1,1.7,3.26,3,5.42,3.69.1,0,.1,0,.2,0a1,1,0,0,0,.9-.69c.17-.53.06-1.09-.46-1.26a9.74,9.74,0,0,1-6.06-5.19v-1.8c1,1.7,3.26,3,5.42,3.69.1,0,.1.05.2.05a1,1,0,0,0,.9-.69c.17-.53.06-1.09-.46-1.26a9.74,9.74,0,0,1-6.06-5.19v-7c1,1.7,3.26,3,5.42,3.69.1,0,.1.05.2.05a1,1,0,0,0,.9-.69c.17-.53.06-1.09-.46-1.26a9.74,9.74,0,0,1-6.06-5.19V136.2a9.27,9.27,0,0,0,4.73,3.14c.1,0,.1,0,.2,0a1,1,0,0,0,.9-.69c.17-.53.06-1.09-.46-1.26A9.05,9.05,0,0,1,386.1,132.83Zm-41.16,28.3a9.89,9.89,0,0,1-5.58,4.23,1,1,0,0,0-.7,1.24,1,1,0,0,0,.94.71,1.9,1.9,0,0,0,.41,0c1.88-.56,3.09-1.6,5.09-3v4a1,1,0,0,0,2,0v-4.1a9.52,9.52,0,0,0,4.95,3.09.57.57,0,0,0,.22,0,1,1,0,0,0,.92-.71,1,1,0,0,0-.69-1.24,9.56,9.56,0,0,1-5.39-4.23c0-.18,0-.35,0-.51v-1.8a9.52,9.52,0,0,0,4.95,3.09.54.54,0,0,0,.22,0,1,1,0,0,0,.92-.71,1,1,0,0,0-.69-1.24,9.56,9.56,0,0,1-5.39-4.23c0-.18,0-.36,0-.51v-1.8a9.48,9.48,0,0,0,5,3.09.6.6,0,0,0,.22,0,1,1,0,0,0,.92-.71,1,1,0,0,0-.69-1.25A9.84,9.84,0,0,1,347,150.4a1,1,0,0,0-.52-.9,1,1,0,0,0-.57-.09,1,1,0,0,0-.56.09,1,1,0,0,0-.52.9,9.86,9.86,0,0,1-5.52,4.24,1,1,0,0,0,.29,2,2.06,2.06,0,0,0,.42,0c1.89-.56,3.1-1.6,5.1-3v1.94c0,.08-.16.16-.16.25a9.93,9.93,0,0,1-5.58,4.23,1,1,0,0,0-.7,1.24,1,1,0,0,0,.94.71,1.9,1.9,0,0,0,.41,0c1.88-.56,3.09-1.6,5.09-3v1.94C345.1,161,344.94,161.05,344.94,161.13ZM73,130.85a10.7,10.7,0,0,1-6,4.6,1,1,0,0,0-.7,1.24,1,1,0,0,0,.94.71,1.72,1.72,0,0,0,.39,0c2.08-.62,3.56-1.78,5.56-3.32v4.48a1,1,0,0,0,2,0v-4.6c1,1.6,3.31,2.81,5.44,3.44a.62.62,0,0,0,.23,0,1,1,0,0,0,.93-.71,1,1,0,0,0-.69-1.24,10.33,10.33,0,0,1-5.87-4.6c0-.2,0-.38,0-.55v-2.15c1,1.59,3.31,2.81,5.44,3.44a.62.62,0,0,0,.23,0,1,1,0,0,0,.93-.71,1,1,0,0,0-.69-1.24,10.43,10.43,0,0,1-5.88-4.6c0-.2,0-.38,0-.55v-2.15c1,1.59,3.31,2.81,5.44,3.44a.62.62,0,0,0,.23,0,1,1,0,0,0,.93-.71,1,1,0,0,0-.69-1.24,10.63,10.63,0,0,1-6-4.6,1,1,0,0,0-1.1-1,1,1,0,0,0-.57.09,1,1,0,0,0-.52.93,10.6,10.6,0,0,1-6,4.6,1,1,0,0,0,.29,1.95,1.75,1.75,0,0,0,.4,0c2.08-.62,3.56-1.79,5.56-3.32v2.24c0,.11-.16.22-.15.34a10.7,10.7,0,0,1-6,4.6,1,1,0,0,0-.7,1.24,1,1,0,0,0,.94.71,1.81,1.81,0,0,0,.4,0c2.08-.62,3.55-1.79,5.55-3.32v2.24C73.1,130.62,72.94,130.74,73,130.85ZM249.1,164.57a16.7,16.7,0,0,0,5.71,3.44,1.53,1.53,0,0,0,.36,0,1,1,0,0,0,1-.71,1,1,0,0,0-.65-1.24,10.59,10.59,0,0,1-6-4.6,1,1,0,0,0-.52-.93,1,1,0,0,0-.57-.09,1,1,0,0,0-.57.09,1,1,0,0,0-.52.93,10.6,10.6,0,0,1-6,4.6,1,1,0,0,0,.29,2c.09,0,0,0,.14,0,2.08-.62,4.3-1.79,5.3-3.32v2.24c0,.11.11.22.11.34a10.46,10.46,0,0,1-5.91,4.6,1,1,0,0,0-.64,1.24,1,1,0,0,0,1,.71c.09,0,0,0,.15,0,2.08-.62,4.31-1.79,5.31-3.32v2.24c0,.11.11.22.11.34a10.45,10.45,0,0,1-5.91,4.6,1,1,0,0,0-.64,1.24,1,1,0,0,0,1,.71c.09,0,0,0,.15,0,2.08-.62,4.31-1.78,5.31-3.32v4.48a1,1,0,1,0,2,0v-4.6a16.54,16.54,0,0,0,5.71,3.44,1.53,1.53,0,0,0,.36,0,1,1,0,0,0,1-.71,1,1,0,0,0-.65-1.24,10.87,10.87,0,0,1-6.12-4.6c0-.2-.29-.39-.29-.55v-2.15a16.7,16.7,0,0,0,5.71,3.44,1.53,1.53,0,0,0,.36,0,1,1,0,0,0,1-.71,1,1,0,0,0-.65-1.24,10.92,10.92,0,0,1-6.12-4.6c0-.2-.29-.39-.29-.55v-2.15ZM92.2,125.08a10.44,10.44,0,0,1-5.92,4.6,1,1,0,0,0-.64,1.24,1,1,0,0,0,1,.71c.09,0,.07,0,.16,0,2.08-.62,4.32-1.79,5.32-3.32v3.07a1,1,0,0,0,2,0v-3.19a16.72,16.72,0,0,0,5.69,3.44,1.45,1.45,0,0,0,.35,0,1,1,0,0,0,1-.71,1,1,0,0,0-.65-1.24,10.9,10.9,0,0,1-6.11-4.6c0-.2-.27-.38-.27-.55v-2.15a16.75,16.75,0,0,0,5.69,3.45,1.45,1.45,0,0,0,.35,0,1,1,0,0,0,1-.71,1,1,0,0,0-.65-1.24,10.64,10.64,0,0,1-6-4.6,1,1,0,0,0-.52-.93,1,1,0,0,0-.57-.1.95.95,0,0,0-1.08,1,10.6,10.6,0,0,1-6,4.6,1,1,0,0,0,.29,2c.09,0,.06,0,.15,0,2.08-.62,4.31-1.79,5.31-3.32v2.24C92.1,124.85,92.19,125,92.2,125.08ZM321,123a10.72,10.72,0,0,1-6,4.6,1,1,0,0,0-.7,1.24,1,1,0,0,0,.95.71,1.55,1.55,0,0,0,.37,0c2.08-.62,3.53-1.79,5.53-3.32v6.15a1,1,0,0,0,2,0v-6.27c1,1.6,3.33,2.81,5.47,3.45a.67.67,0,0,0,.24,0,1,1,0,0,0,.93-.71,1,1,0,0,0-.68-1.24,10.47,10.47,0,0,1-5.9-4.6c0-.2-.06-.39-.06-.56V120.3c1,1.6,3.33,2.81,5.47,3.44a.67.67,0,0,0,.24,0,1,1,0,0,0,.93-.71,1,1,0,0,0-.68-1.24,10.63,10.63,0,0,1-6-4.6,1,1,0,0,0-.52-.93.9.9,0,0,0-.58-.09,1,1,0,0,0-.57.09,1,1,0,0,0-.52.93,10.64,10.64,0,0,1-6,4.6,1,1,0,0,0,.29,2,1.69,1.69,0,0,0,.38,0c2.08-.62,3.54-1.79,5.54-3.32v2.24C321.1,122.77,321,122.88,321,123Zm-29.87.63a16.66,16.66,0,0,0,5.69,3.45,1.45,1.45,0,0,0,.35,0,1,1,0,0,0,1-.71,1,1,0,0,0-.66-1.24,10.59,10.59,0,0,1-6-4.6,1,1,0,0,0-.52-.93,1,1,0,0,0-.57-.09,1,1,0,0,0-.57.09,1,1,0,0,0-.52.93,10.6,10.6,0,0,1-6,4.6,1,1,0,0,0,.29,2c.09,0,.06,0,.15,0,2.08-.62,4.32-1.79,5.32-3.32V126c0,.11.09.22.1.34a10.44,10.44,0,0,1-5.92,4.6,1,1,0,0,0-.64,1.24,1,1,0,0,0,1,.71c.09,0,.07,0,.16,0,2.08-.62,4.32-1.79,5.32-3.32v6.15a1,1,0,0,0,2,0v-6.27a16.75,16.75,0,0,0,5.69,3.45,1.45,1.45,0,0,0,.35,0,1,1,0,0,0,1-.71,1,1,0,0,0-.66-1.24,10.93,10.93,0,0,1-6.11-4.6c0-.2-.27-.38-.27-.55v-2.17ZM399,185H1a1,1,0,0,0,0,2H399a1,1,0,0,0,0-2ZM143.19,128a1,1,0,0,0,0,2h1a1,1,0,0,0,0-2ZM61.56,2H78.05a1,1,0,0,0,0-2H61.56a1,1,0,0,0,0,2Zm36,157a1,1,0,0,0,0-2H94.42a1,1,0,0,0,0,2ZM84,2h3a1,1,0,0,0,0-2H84a1,1,0,0,0,0,2ZM327.84,82a1,1,0,0,0,0,2h6.26a1,1,0,0,0,0-2ZM169.36,91a1,1,0,0,0,0-2h-3a1,1,0,0,0,0,2Zm11-75h8.2a1,1,0,0,0,0-2h-8.2a1,1,0,0,0,0,2Zm-6.9,0h2.36a1,1,0,0,0,0-2h-2.36a1,1,0,0,0,0,2ZM84.41,77a1,1,0,0,0,0-2H70.55a1,1,0,0,0,0,2ZM63.64,75a1,1,0,1,0,0,2H66a1,1,0,0,0,0-2Zm86.69,44a1,1,0,1,0,0-2H145.2a1,1,0,0,0,0,2ZM367.46,46a1,1,0,0,0,0,2h5.13a1,1,0,0,0,0-2ZM251,40h-1.79a1,1,0,0,0,0,2H251a1,1,0,1,0,0-2Zm-45.66,2h2a1,1,0,0,0,0-2h-2a1,1,0,0,0,0,2Zm40.45,4h-1.59a1,1,0,0,0,0,2h1.59a1,1,0,0,0,0-2ZM200,48h5.39a1,1,0,0,0,0-2H200a1,1,0,0,0,0,2Zm2.86,4H191.12a1,1,0,0,0,0,2h11.72a1,1,0,0,0,0-2Zm40.43,12h-3a1,1,0,0,0,0,2h3a1,1,0,0,0,0-2ZM131.85,72h3.25a1,1,0,0,0,0-2h-3.24a1,1,0,0,0,0,2Zm-9.06,6h5.69a1,1,0,0,0,0-2h-5.69a1,1,0,0,0,0,2ZM365,168.58a1.08,1.08,0,0,0,.07-.31v-6.75a16,16,0,0,0,6.84,4.64,1,1,0,0,0,.3.05,1,1,0,0,0,.31-2c-3.12-1-5.45-3.26-7.45-6.22v-2.65a16.09,16.09,0,0,0,6.84,4.65,1,1,0,0,0,.3.05,1,1,0,0,0,.31-2c-3.12-1-5.46-3.26-7.46-6.22v-2.65a16.09,16.09,0,0,0,6.84,4.65,1,1,0,0,0,.3.05,1,1,0,0,0,.31-1.95c-3.12-1-5.46-3.26-7.46-6.22v-2.7a17.6,17.6,0,0,0,9.42,5.79.91.91,0,0,0,.23,0,1,1,0,0,0,1-.77A1,1,0,0,0,375,147c-4.9-1.16-7.88-4.5-9.88-7.25V137a16.09,16.09,0,0,0,6.84,4.65,1,1,0,0,0,.3,0,1,1,0,0,0,.31-1.95c-3.12-1-5.45-3.26-7.45-6.22v-2.35a16.15,16.15,0,0,0,6,4,1,1,0,0,0,.3,0,1,1,0,0,0,.3-1.95,12,12,0,0,1-6.67-5.55,1,1,0,0,0-.53-1,1,1,0,0,0-.57-.08,1,1,0,0,0-.57.08,1,1,0,0,0-.53,1,11.9,11.9,0,0,1-6.67,5.55,1,1,0,0,0,.3,1.95,1.12,1.12,0,0,0,.31,0,15.71,15.71,0,0,0,6.29-4.29v1.81c0,.22-.27.51-.23.79a13.35,13.35,0,0,1-7.49,6.27,1,1,0,0,0,.3,2,1.12,1.12,0,0,0,.31-.05,15.89,15.89,0,0,0,7.1-4.93v2.1c0,.22-.27.52-.22.81a15.93,15.93,0,0,1-9.91,7.3,1,1,0,1,0,.47,1.94,17.65,17.65,0,0,0,9.67-6.09V145c0,.22-.27.51-.23.8a13.29,13.29,0,0,1-7.49,6.26,1,1,0,0,0,.3,2,1.12,1.12,0,0,0,.31-.05,15.83,15.83,0,0,0,7.1-4.94v2.1c0,.22-.27.51-.23.79a13.36,13.36,0,0,1-7.49,6.26,1,1,0,0,0,.3,1.95,1.12,1.12,0,0,0,.31,0,15.83,15.83,0,0,0,7.1-4.94v2.1c0,.22-.27.51-.23.8a13.33,13.33,0,0,1-7.49,6.26,1,1,0,0,0,.3,1.95,1.12,1.12,0,0,0,.31-.05,15.89,15.89,0,0,0,7.1-4.93v7a1,1,0,0,0,.06.34,88.92,88.92,0,0,0-20.76,2.79.91.91,0,0,0-.36-.2c-3.28-1-6.75-2-10.32-2.81a1,1,0,1,0-.45,1.95c2.67.62,5.28,1.31,7.8,2.05-1.79.58-3.53,1.21-5.17,1.92a1,1,0,0,0,.4,1.91,1.14,1.14,0,0,0,.4-.08c8.55-3.71,19.14-5.59,31.48-5.59a88.48,88.48,0,0,1,27.38,4.07,1,1,0,0,0,.63-1.89,90.4,90.4,0,0,0-28-4.17C365.79,168.56,365.42,168.58,365,168.58Zm-37.71.87a1,1,0,0,0,1-.8c.11-.54-.47-1.07-1-1.18-4.54-.93-9.19-1.69-14.19-2.27v-8.27a17.4,17.4,0,0,0,5.86,3.69,2,2,0,0,0,.42,0,1.08,1.08,0,0,0,1-.69c.17-.53-.32-1.09-.85-1.26-2.6-.84-4.44-2.72-6.44-5.19v-7a17.4,17.4,0,0,0,5.86,3.69,2,2,0,0,0,.42,0,1.08,1.08,0,0,0,1-.69c.17-.53-.32-1.09-.85-1.26-2.61-.84-4.44-2.72-6.44-5.19v-1.56c2,1.44,3.3,2.54,5.17,3.14a2,2,0,0,0,.42.05,1.08,1.08,0,0,0,1-.69c.17-.53-.32-1.09-.85-1.26-2.31-.74-3.75-2.4-5.75-4.58v-.42c0-.55-.21-1-.77-1a.83.83,0,0,0-.8.61,1,1,0,0,0-.22.78,9.92,9.92,0,0,1-5.53,4.6,1,1,0,0,0-.63,1.26,1,1,0,0,0,1,.69c.1,0,0,0,.08-.05a9.26,9.26,0,0,0,4.92-3.38v1.09a5.87,5.87,0,0,0,0,.69A11,11,0,0,1,305,148.3a1,1,0,0,0-.59,1.26,1,1,0,0,0,1,.69c.1,0,0,0,.09-.05,2.25-.73,4.62-2.11,5.62-3.93v6.55a5.87,5.87,0,0,0,0,.69,11,11,0,0,1-6.13,5.21,1,1,0,0,0-.59,1.26,1,1,0,0,0,1,.69c.1,0,0,0,.09,0,2.25-.72,4.62-2.11,5.62-3.93V165a193.63,193.63,0,0,0-22.1-1.23c-2,0-4,0-5.91.08a1,1,0,0,0-.92,1,1,1,0,0,0,1.05,1c1.93-.05,4-.08,6-.08a188.88,188.88,0,0,1,37.9,3.69Zm-308-41.4a1,1,0,0,1-.23-1.4L39.11,98.6a.92.92,0,0,1,.22-.22l12-8.89a1.19,1.19,0,0,1,.16-.08l.12-.06a1.12,1.12,0,0,1,.31,0h0a1,1,0,0,1,.36.09h0s.05,0,.08.07l.16.12,17.77,15.63L111.57,72h-30a13.28,13.28,0,0,1,0-26.56A13.11,13.11,0,0,1,90,48.53a8,8,0,0,1,11.71-5.28,1.27,1.27,0,0,1,.12.1,10.58,10.58,0,0,1,14.27-1.88c1.13-10.56,10.87-18.83,22.67-18.83,12.11,0,22,8.71,22.74,19.65L169.23,34s.08,0,.12-.08a.8.8,0,0,1,.19-.13.67.67,0,0,1,.19,0l.17-.05h0l.18,0a.58.58,0,0,1,.19,0,.6.6,0,0,1,.11.06,1.14,1.14,0,0,1,.23.15h0l6.55,6.46,10.13,5.62,10.56-5.9,10.93-11a1,1,0,0,1,.44-.45l14.93-15.1.24-.49a1,1,0,0,1,1.09-.53,1.15,1.15,0,0,1,.26,0,1,1,0,0,1,.74.48l5.9,9.86L243.52,34l9.9-10.52a1,1,0,0,1,1.51-.85,1,1,0,0,1,.45.23l4.67,4.42c0-.16,0-.31,0-.47,0-5.43,5-9.85,11.23-9.85,5,0,9.16,2.83,10.65,6.75a10.32,10.32,0,0,1,8.52-4.51,10.43,10.43,0,0,1,2,.2c.35-3.87,4-6.93,8.44-6.93a8.7,8.7,0,0,1,7.27,3.69A19.41,19.41,0,0,1,345.6,16,10.61,10.61,0,0,1,365,18.43,14.08,14.08,0,1,1,375.35,42H316a1,1,0,0,1,0-2h59.4a12,12,0,1,0-9.92-18.87c0,.05,0,.1,0,.16a1,1,0,0,1-.7.94,12.13,12.13,0,0,0-1.53,5.9,1,1,0,0,1-2,0,14,14,0,0,1,2.2-7.55,8.62,8.62,0,0,0-17.21.71,1,1,0,1,1-2,0c0-.21,0-.41,0-.62a.76.76,0,0,1,0-.16c0-9.21-7.75-16.69-17.29-16.69s-17.29,7.49-17.29,16.69a1,1,0,0,1-1,1,1,1,0,0,1-1-.85,1,1,0,0,1-.27-.67c0-3.05-2.9-5.54-6.47-5.54S294.44,17,294.44,20a10.35,10.35,0,0,1,6.33,9.54,1,1,0,1,1-2,0,8.33,8.33,0,1,0-16.66,0,8.25,8.25,0,0,0,.36,2.42,1,1,0,0,1-.67,1.25,1,1,0,0,1-.29,0,1,1,0,0,1-1-.71,10.47,10.47,0,0,1-.44-3,10.13,10.13,0,0,1,.39-2.77c0-4.31-4.15-7.82-9.23-7.82S262,22.46,262,26.79a6.77,6.77,0,0,0,.38,2.22.78.78,0,0,1,0,.45L273.66,40h27.7a1,1,0,0,1,0,2H275.77l41.54,40h4.56a1,1,0,0,1,0,2h-2.45l28.74,27s0-.17.07-.14l7.95-12.43a1,1,0,0,1,.48-.76l.3-.47a1,1,0,0,1,.78-.46,1,1,0,0,1,.83.36L368,108.35l11.61,4.42a1,1,0,0,1,.52.45l7.58,13.53a1,1,0,0,1-1.74,1l-7.4-13.22L367,110.13a1,1,0,0,1-.41-.29l-7.75-9.27,4,12.84a1,1,0,0,1-.4,1.13l-7.77,5.23-6.74,9.1a1,1,0,0,1-.66.39l-16.45,2.33-10,8.77a1,1,0,0,1-.66.25,1,1,0,0,1-.65-1.75l9.61-8.39a1,1,0,0,1,.83-.77H330L344,117.51l2.88-4.51a.93.93,0,0,1,0-.73l-.1-.06L256.74,26.88l3,8.2a1,1,0,0,1-.14,1L249,50.09l.85,15.53a1,1,0,0,1-.56.95L221.2,80.39,205.65,99l-2,8.35,5-4.41a1,1,0,0,1,.82-.24,1,1,0,0,1,.7.48l10.12,17.14,15.81,8.44a1,1,0,1,1-.94,1.76l-16.06-8.58a1.07,1.07,0,0,1-.39-.37L209.7,106.2l-3.79,8.3s0,0,0,.06a1,1,0,0,1-.39.77l-4.92,10.77a1,1,0,0,1-.49.49l-14.93,7-12.78,8a1,1,0,0,1-.53.15,1,1,0,0,1-.58-.18,1,1,0,0,1-.4-1l3-13.42-16.68-17.58L141,98.49a1.06,1.06,0,0,1-.14.51l-8,13.33,1,14.82a1,1,0,0,1-.56,1c-10.76,5.27-12.74,6.39-13.07,6.64a.83.83,0,0,1-.12.08l-16.64,12.06a1,1,0,0,1-.59.1h0L74,146.09a.92.92,0,0,1-1-.73,1,1,0,0,1,.61-1.1l30.05-12.14,6.66-8.13a1,1,0,0,1,.48-.59l12.54-15.29a1.29,1.29,0,0,1,.17-.16l15.92-12.12a1,1,0,0,1,1.17,0l17.76,12.12a1.07,1.07,0,0,1,.16.14l16.67,17.57,13.06-4.84,12.77-11.22v0l2.68-11.29a1.07,1.07,0,0,1,.21-.41L219.8,78.92h0l12-14.55L233.14,59s0-.06,0-.1a1,1,0,0,1,.19-.55l3-11.48a.85.85,0,0,1,.09-.22l6-11.12L230.94,24.13a.9.9,0,0,1-.15-.19l-5.19-8.67L211.82,44.15l-1.9,9.15a1.21,1.21,0,0,1-.18.44l-12.56,16.7c-.18.24-.46.54-.76.54h0c-.28,0-.47-.27-.66-.48L186.2,59.61c-.16-.18-.09-.42-.09-.67V47.43l-9.8-5.34a2.66,2.66,0,0,1-.39-.16l-4.77-4.71L172.21,53a1,1,0,0,1-.67,1l-11.91,4.14L147,65.63,126.86,85.75a1.07,1.07,0,0,1-.45.26L83.69,97.59a1.27,1.27,0,0,1-.26,0,1,1,0,0,1-.5-.15L55.31,119.79a1,1,0,0,1-.63.22,1,1,0,0,1-.78-.37,1,1,0,0,1,.15-1.41l14.68-11.85L52.22,91.91l-7.53,16.23a1,1,0,0,1-.41.45L28,117.86a1.21,1.21,0,0,1-.3.11l-7,9.83a1,1,0,0,1-.81.42A.85.85,0,0,1,19.28,128.05ZM138.5,99.53,129.93,106h1a1,1,0,0,1,0,2h-3.51s-.08-.28-.13-.28l-2.48,1.63L113.54,123h5.11a1,1,0,0,1,0,2H111.9l-6.81,8.44c-.11.13-.24.36-.4.42L101.77,135h5.76a1,1,0,0,1,0,2H97.24a1.29,1.29,0,0,1-.28,0l-18.19,7.39,23.81.83,3-2.2H100a1,1,0,1,1,0-2h7.51a1,1,0,0,1,.58.15l5.62-4.15H111.3a1,1,0,0,1,0-2h4.14a1,1,0,0,1,.67.25l2.77-2A19.91,19.91,0,0,0,122.7,131h-7.5a1,1,0,1,1,0-2H125a1,1,0,0,1,.8.42c1.61-.8,3.57-1.78,6-3l-.49-7.43H121.18a1,1,0,0,1,0-2h10l-.26-3h-5.84a1,1,0,0,1,0-2H131ZM204,110l-4.43,4h4.57l3.05-6.87-1.92,1.51s0,.16,0,.2a1.15,1.15,0,0,1-1,1.16Zm-.77,6H197.7c-.12,0-.23-.26-.34-.3l-7.89,6.7a.92.92,0,0,1-.31.16l-13.34,4.88L175,131h3.63a1,1,0,0,1,0,2h-4.07l-1.19,5.55,10.81-6.63s.07,0,.11,0L199,125.17Zm157.56-2.55-3.87-12.36-3.07,4.9h1.87a1,1,0,0,1,0,2h-2.48a.92.92,0,0,1-.55-.13L350.07,112h7a1,1,0,0,1,0,2h-8.26l-2.49,4h2.89a1,1,0,0,1,0,2h-4.51s0-.28,0-.28l-11,9.34,13-2L348,125h-3.49a1,1,0,0,1,0-2h4.74c.07,0,.14.31.21.32l2.92-3.66a.91.91,0,0,1-1-.88c0-.55.45-.78,1-.78h1.79c.05,0,.09-.2.14-.19ZM257.66,35.36l-3.52-9.52L251.4,29h1.06a1,1,0,0,1,0,2H250c-.14,0-.27-.47-.39-.52L245.86,34h7.95a1,1,0,0,1,0,2h-9.26a.86.86,0,0,1-.36,0l-2.12,4H246a1,1,0,0,1,0,2h-4.51c-.14,0-.28.1-.41,0l-2.86,5.47L237,52h7.45a1,1,0,0,1,0,2h-7.76a1.36,1.36,0,0,1-.2,0l-1,4h5.85a1,1,0,1,1,0,2H235l-1,4h2.75a1,1,0,1,1,0,2h-3.57L230,70h2.15a1,1,0,1,1,0,2h-3.73s0-.14-.06-.14l-4,4.77,23.5-11.58-.84-15.23a1,1,0,0,1,.2-.66ZM221.58,19.2l-3.88,3.85a1.2,1.2,0,0,1,.27.77A1.17,1.17,0,0,1,217,25h-.41a1,1,0,0,1-.42,0l-3.94,4H217s0-.23.06-.23ZM191.19,46h4a1,1,0,0,1,0,2h-6.67a.71.71,0,0,1-.5-.11l-.06.18s.1,0,.1,0V58l-.27,0h9.29a1,1,0,0,1,0,2H189l3.52,4a.89.89,0,0,1,.23,0h3.16a1,1,0,0,1,0,2h-1.64l2,2.24L208,52.73l1.88-9c0-.08,0,0,.08-.11L216.1,31h-5.88l-3.84,3h3.08a1,1,0,0,1,0,2H204.4l-5.18,5.4c-.07.07-.14.28-.22.33ZM114,70l11.63-9.5c.09-.08.2-.24.31-.27l27.27-9.11,6.51-7a1,1,0,0,1-.23-.61c0-10.41-9.32-18.89-20.78-18.89S118.18,32.94,118,43.2a10,10,0,0,1,1.11,1.55A20.75,20.75,0,0,1,125.26,34a1,1,0,0,1,1.35,1.47,18.94,18.94,0,0,0-6,13.95.9.9,0,0,1,0,.16c0,.21,0,.41,0,.62a10.53,10.53,0,0,1-1.6,5.6,1,1,0,0,1-.85.47,1,1,0,0,1-.53-.15,1,1,0,0,1-.32-1.38,8.62,8.62,0,1,0-15.94-4.55,1,1,0,1,1-2,0A10.6,10.6,0,0,1,100.69,45a6,6,0,0,0-8.9,5.2.86.86,0,0,1,0,.17,13.15,13.15,0,0,1,2.92,8.26,1,1,0,0,1-1,1,1,1,0,0,1-1-1A11.16,11.16,0,1,0,81.52,70H114Zm.71,2L110,76h7.49a1,1,0,1,1,0,2h-10l-4.82,4h17.82a1,1,0,0,1,0,2H100.45c-.06,0-.12-.47-.17-.48L95.42,87h6a1,1,0,0,1,0,2h-8c-.12,0-.23.17-.34.13L86.2,94.85l39.44-10.69,20-20a1,1,0,0,1,.2-.16l12.83-7.61a1.62,1.62,0,0,1,.18-.1l11.28-4-1-15.41-3,3.1h1a1,1,0,0,1,0,2h-2.27a1.06,1.06,0,0,1-.47-.07L160.59,46h1.35a1,1,0,0,1,0,2h-3.13s-.05,0-.07,0l-3.64,4h6.6a1,1,0,0,1,0,2h-9.5a1,1,0,0,1-.68-.22L139.06,58h7a1,1,0,0,1,0,2H134a.92.92,0,0,1-.49-.13l-6.72,2.26L124.58,64h5.53a1,1,0,1,1,0,2h-7.93s0,0-.06,0l-4.83,4h10.12a1,1,0,0,1,0,2H114.75ZM30.41,114.49,33.19,113H31.82c-.09,0-.17-.22-.25-.24ZM37.18,105H40.9a1,1,0,1,1,0,2H36.23a1,1,0,0,1-.42,0L33,111h2.51c.28,0,.53,0,.71.14l6.82-4,2.87-6.1H44.33a1,1,0,1,1,0-2h1.79a.89.89,0,0,1,.58.17l2.6-5.65L40.64,100Zm75.69-39H91.32a1,1,0,0,0,0,2h21.55a1,1,0,0,0,0-2ZM86.19,66H82.08a1,1,0,1,0,0,2h4.11a1,1,0,0,0,0-2Zm45.26-33.82a1.06,1.06,0,0,0,.38-.07,15.62,15.62,0,0,1,2.1-.69,1,1,0,0,0-.5-1.94,20.21,20.21,0,0,0-2.35.78,1,1,0,0,0-.55,1.3A1,1,0,0,0,131.45,32.18ZM342.67,38h8.21a1,1,0,0,0,0-2h-8.21a1,1,0,0,0,0,2Zm-35.34,2a1,1,0,0,0,0,2h2.05a1,1,0,0,0,0-2Zm30.13-3a1,1,0,0,0-1-1h-50a1,1,0,0,0,0,2h50A1,1,0,0,0,337.46,37ZM327.32,6.87a15,15,0,0,0-2.67.24,1,1,0,0,0,.35,2,12.81,12.81,0,0,1,2.31-.21A12.31,12.31,0,0,1,338.8,16.4a1,1,0,0,0,.92.62.84.84,0,0,0,.38-.08,1,1,0,0,0,.54-1.31A14.24,14.24,0,0,0,327.32,6.87ZM340.55,18.8a1,1,0,0,0-.92,1.07c0,.3,0,.6,0,.91a1,1,0,1,0,2,0c0-.36,0-.71,0-1.07A1,1,0,0,0,340.55,18.8ZM94.4,108a1,1,0,0,0,0,2h4.1a1,1,0,0,0,0-2Zm6.15-2a1,1,0,1,0,0-2h-1a1,1,0,1,0,0,2Zm204.36,4a1,1,0,0,0,0-2h-1a1,1,0,0,0,0,2Zm65.79,64a1,1,0,0,0,0,2h3.08a1,1,0,0,0,0-2Zm-186-107a1,1,0,0,0,0-2h-1a1,1,0,0,0,0,2Zm95.44,10a1,1,0,0,0,0-2h-4.1a1,1,0,0,0,0,2Zm3.05-15a1,1,0,0,0-1-1h-1a1,1,0,0,0,0,2h1A1,1,0,0,0,283.2,62Zm49.29,79h1a1,1,0,0,0,0-2h-1a1,1,0,0,0,0,2Zm-105,38.71a1,1,0,1,0-.37,2l1.48.28.19,0a1,1,0,0,0,.18-2ZM85,176.52a1,1,0,0,0,1.12.87A457.78,457.78,0,0,1,222,180.74h.17a1,1,0,0,0,1-.83,1,1,0,0,0-.81-1.16c-3.33-.58-6.82-1.12-10.16-1.63,0-.11-.09-.21-.09-.33v-6.75a16.5,16.5,0,0,0,7,4.64,1.67,1.67,0,0,0,.39.05,1,1,0,0,0,1-.69,1.09,1.09,0,0,0-.79-1.26,14.85,14.85,0,0,1-7.6-6.22v-2.65a16.62,16.62,0,0,0,7,4.65,1.74,1.74,0,0,0,.39.05,1,1,0,0,0,1-.69,1.09,1.09,0,0,0-.79-1.26,14.85,14.85,0,0,1-7.6-6.22V157.8a16.62,16.62,0,0,0,7,4.65,1.74,1.74,0,0,0,.39.05,1,1,0,0,0,1-.69,1.09,1.09,0,0,0-.79-1.26,14.85,14.85,0,0,1-7.6-6.22v-2.7a18.12,18.12,0,0,0,9.58,5.79,1.71,1.71,0,0,0,.31,0,1,1,0,0,0,1-.77,1.09,1.09,0,0,0-.88-1.2c-4.9-1.16-8-4.5-10-7.25v-2.67a16.62,16.62,0,0,0,7,4.65,1.74,1.74,0,0,0,.39,0,1,1,0,0,0,1-.69,1.09,1.09,0,0,0-.79-1.26,14.85,14.85,0,0,1-7.6-6.22v-2.35a16.72,16.72,0,0,0,6.2,4,1.74,1.74,0,0,0,.39,0,1,1,0,0,0,1-.69,1,1,0,0,0-.63-1.26,12,12,0,0,1-6.66-5.55,1,1,0,0,0-.53-1,1,1,0,0,0-.56-.08,1,1,0,0,0-.57.08,1,1,0,0,0-.53,1,11.94,11.94,0,0,1-6.67,5.55,1,1,0,0,0-.64,1.26,1,1,0,0,0,.95.69c.1,0,0,0,.14,0,2.44-.79,5.12-2.3,6.12-4.29v1.81a4.74,4.74,0,0,0-.06.8,13.15,13.15,0,0,1-7.4,6.26,1,1,0,0,0-.61,1.26,1,1,0,0,0,1,.69c.1,0,.05,0,.15-.05a15.38,15.38,0,0,0,6.94-4.94v2.1a4.87,4.87,0,0,0-.06.81,15.74,15.74,0,0,1-9.83,7.3,1,1,0,0,0-.7,1.2,1,1,0,0,0,1,.77c.08,0,0,0,.08,0a17.2,17.2,0,0,0,9.51-6.09v2.16a4.74,4.74,0,0,0-.06.8,13.15,13.15,0,0,1-7.4,6.26,1,1,0,0,0-.61,1.26,1,1,0,0,0,1,.69c.1,0,0,0,.15,0a15.38,15.38,0,0,0,6.94-4.94v2.1a4.74,4.74,0,0,0-.06.8,13.18,13.18,0,0,1-7.4,6.26,1,1,0,0,0-.6,1.26,1,1,0,0,0,1,.69c.1,0,0,0,.15,0a15.46,15.46,0,0,0,6.94-4.94v2.1a4.7,4.7,0,0,0-.06.79,13.18,13.18,0,0,1-7.4,6.26,1,1,0,0,0-.61,1.26,1,1,0,0,0,1,.69c.1,0,.05,0,.15-.05a15.44,15.44,0,0,0,6.94-4.93v7s.17,0,.17,0c-6-.9-12.11-1.67-18.16-2.33a.81.81,0,0,0,0-.15V165c2,1.59,3.54,2.81,5.68,3.44a1.39,1.39,0,0,0,.35,0,1,1,0,0,0,1-.71,1,1,0,0,0-.66-1.24,10.85,10.85,0,0,1-6.09-4.6c0-.2-.26-.38-.26-.55v-2.15a16.62,16.62,0,0,0,5.68,3.45,1.39,1.39,0,0,0,.35,0,1,1,0,0,0,1-.71,1,1,0,0,0-.66-1.24,10.64,10.64,0,0,1-6-4.6,1,1,0,0,0-.52-.93.88.88,0,0,0-.57-.09,1,1,0,0,0-.57.09,1,1,0,0,0-.52.93,10.64,10.64,0,0,1-6,4.6,1,1,0,0,0,.29,2c.1,0,.07,0,.17,0,2.08-.62,4.33-1.79,5.33-3.32v2.24c0,.11.08.22.08.34a10.47,10.47,0,0,1-5.92,4.6,1,1,0,0,0-.64,1.24,1,1,0,0,0,1,.71c.1,0,.08,0,.18,0,2.08-.62,4.34-1.79,5.34-3.32v9.16q-15-1.58-30-2.13v-5.46c1,1.7,3.41,3,5.56,3.68a.86.86,0,0,0,.27,0,1,1,0,0,0,.94-.69,1,1,0,0,0-.59-1.26c-2.6-.84-5.18-2.71-6.18-5.18v-1.78a16,16,0,0,0,7.66,4.56.69.69,0,0,0,.2,0,1,1,0,0,0,1-.77,1,1,0,0,0-.68-1.2c-4-.95-7.12-3.62-8.12-5.9v-1.95c1,1.7,3.41,3,5.56,3.69a.86.86,0,0,0,.27.05,1,1,0,0,0,.94-.69,1,1,0,0,0-.59-1.26c-2.6-.84-5.18-2.72-6.18-5.19V151a16.17,16.17,0,0,0,7.76,4.68.69.69,0,0,0,.2,0,1,1,0,0,0,1-.77,1,1,0,0,0-.68-1.2c-4.11-1-7.23-3.77-8.23-6.09V145.9c1,1.7,3.41,3,5.56,3.69a.86.86,0,0,0,.27,0,1,1,0,0,0,.94-.69,1,1,0,0,0-.59-1.26c-2.6-.84-5.18-2.72-6.18-5.19v-1.56a9.65,9.65,0,0,0,4.87,3.14.86.86,0,0,0,.27,0,1,1,0,0,0,.94-.69,1,1,0,0,0-.59-1.26,9.12,9.12,0,0,1-5.49-4.58v-.42a1.07,1.07,0,0,0-2-.39,1,1,0,0,0-.29.78,10,10,0,0,1-5.57,4.6,1,1,0,0,0,.3,2,1.57,1.57,0,0,0,.37-.05c2-.63,3.21-1.82,5.21-3.38v1.09c0,.2-.29.44-.26.69a11.29,11.29,0,0,1-6.28,5.21,1,1,0,0,0-.66,1.26,1,1,0,0,0,.94.69,1.57,1.57,0,0,0,.37,0c2.25-.72,3.9-2.11,5.9-3.93V147c0,.2-.29.44-.27.68a13.42,13.42,0,0,1-8.33,6.1,1,1,0,0,0-.76,1.2,1,1,0,0,0,1,.77,1.36,1.36,0,0,0,.29,0,16.46,16.46,0,0,0,8.1-4.91v1.39c0,.2-.29.44-.26.69a11.29,11.29,0,0,1-6.28,5.21,1,1,0,0,0-.66,1.26,1,1,0,0,0,.94.69,1.57,1.57,0,0,0,.37,0c2.25-.72,3.9-2.11,5.9-3.93v1.2c0,.21-.4.5-.37.8a13.42,13.42,0,0,1-8.33,6.1,1,1,0,0,0-.76,1.2,1,1,0,0,0,1,.77,1.36,1.36,0,0,0,.29,0,16.48,16.48,0,0,0,8.2-5v1.54c0,.2-.29.44-.26.69a11.23,11.23,0,0,1-6.28,5.2,1,1,0,0,0-.66,1.26,1,1,0,0,0,.94.69,1.57,1.57,0,0,0,.37,0c2.25-.72,3.9-2.11,5.9-3.93v5.64c-7-.22-13.64-.31-20.5-.23a1,1,0,0,0,.5-.8v-4.6c1,1.6,3.3,2.81,5.43,3.44a.57.57,0,0,0,.22,0,1,1,0,0,0,.93-.71A1,1,0,0,0,144,168a10.31,10.31,0,0,1-5.86-4.6c0-.2,0-.38,0-.55v-2.15c1,1.59,3.3,2.81,5.43,3.44a.6.6,0,0,0,.22,0,1,1,0,0,0,.93-.71,1,1,0,0,0-.69-1.24,10.35,10.35,0,0,1-5.86-4.6c0-.2,0-.38,0-.55v-2.15c1,1.6,3.3,2.81,5.43,3.45a.6.6,0,0,0,.22,0,1,1,0,0,0,.93-.71,1,1,0,0,0-.69-1.24,10.63,10.63,0,0,1-6-4.6,1,1,0,0,0-.52-.93.91.91,0,0,0-.58-.09,1,1,0,0,0-.57.09,1,1,0,0,0-.52.93,10.6,10.6,0,0,1-6,4.6,1,1,0,0,0,.29,2,1.9,1.9,0,0,0,.41,0c2.08-.62,3.57-1.79,5.57-3.32v2.24c0,.11-.17.22-.16.34a10.76,10.76,0,0,1-6.05,4.6,1,1,0,0,0-.7,1.24,1,1,0,0,0,.94.71,2,2,0,0,0,.41,0c2.08-.62,3.57-1.79,5.57-3.32v2.24c0,.11-.17.22-.16.34a10.72,10.72,0,0,1-6,4.6,1,1,0,0,0-.7,1.24,1,1,0,0,0,.94.71,2,2,0,0,0,.41,0,17,17,0,0,0,5.57-3.32v4.48a.87.87,0,0,0,.34.82,463.38,463.38,0,0,0-50.55,3.5A1,1,0,0,0,85,176.52Zm-7.54,0a1,1,0,0,0,.14,2h.14l3.1-.43a1,1,0,0,0-.28-2ZM123.34,125h3.34a1,1,0,0,0,0-2h-3.34a1,1,0,0,0,0,2ZM94.7,141H90.78a1,1,0,0,0,0,2H94.7a1,1,0,0,0,0-2Zm102-22h-1.79a1,1,0,0,0,0,2h1.79a1,1,0,0,0,0-2Zm-5.21,6h-6.23a1,1,0,0,0,0,2h6.23a1,1,0,0,0,0-2Zm-9.06,20a1,1,0,0,0,0-2h-3.92a1,1,0,0,0,0,2Zm-9.34,5a1,1,0,0,0,1,1h3.73a1,1,0,0,0,0-2h-3.73A1,1,0,0,0,173.05,150Zm118.53,22a1,1,0,0,0,0,2h1.67a1,1,0,0,0,0-2Zm10.87-38.68,5.12,5.49a1,1,0,0,1-1.46,1.36L302,135.76l-3,6.61a1,1,0,0,1-.72.57l-14.69,2.88-.19,0a1,1,0,0,1-.93-.64,1,1,0,0,1,.42-1.22l18.27-10.85.08,0a1.43,1.43,0,0,1,.27-.09,1,1,0,0,1,.5,0,1,1,0,0,1,.21.1A1.8,1.8,0,0,1,302.45,133.32Zm-3,3.14-10.58,6.29,8.5-1.67Zm-42.55,17a1,1,0,0,0-1.07-.92l-8.3.62a1.06,1.06,0,0,0-.35.09l-19.74,9.35a1,1,0,0,0,.42,1.9,1,1,0,0,0,.43-.1l19.57-9.27,8.11-.6A1,1,0,0,0,256.94,153.48ZM6.69,176.36a133.9,133.9,0,0,1,14-1.1,1,1,0,0,0,.38.08,1,1,0,0,0,.42-.1,197.57,197.57,0,0,1,38.37,2.57H60a1,1,0,0,0,1-.83,1,1,0,0,0-.82-1.15c-6.17-1-11.85-1.7-17.33-2.11,0-.1.28-.19.28-.3v-9.08c1,2.34,4.14,4.11,6.94,5,.1,0,.1,0,.2,0a1,1,0,0,0,.9-.69c.17-.53.07-1.09-.46-1.26-3.31-1.07-6.58-3.54-7.58-6.78v-2.52a17.08,17.08,0,0,0,9.51,6.16c.08,0,0,0,.12,0a1,1,0,0,0,.92-.77c.13-.54,0-1.08-.55-1.2-5.24-1.25-9-5-10-7.82v-2.24c1,2.16,4,3.79,6.63,4.64.1,0,.1,0,.2,0a1,1,0,0,0,.9-.69c.17-.53.07-1.09-.46-1.26-3.12-1-6.27-3.25-7.27-6.22v-2.65c1,2.15,4,3.79,6.63,4.65.1,0,.1,0,.2,0a1,1,0,0,0,.9-.69c.17-.53.07-1.09-.45-1.26-3.12-1-6.27-3.26-7.27-6.22v-2.65c1,2.16,4,3.79,6.63,4.65.1,0,.1.05.2.05a1,1,0,0,0,.9-.69c.17-.53.07-1.09-.45-1.26-3.12-1-6.27-3.26-7.27-6.22v-2.7a17,17,0,0,0,9.2,5.79c.08,0,0,0,.12,0a1,1,0,0,0,.92-.77c.13-.54,0-1.08-.55-1.2-4.9-1.16-8.69-4.5-9.69-7.25v-2.67c1,2.16,4,3.79,6.63,4.65.1,0,.1.05.2.05a1,1,0,0,0,.9-.69c.17-.53.07-1.09-.46-1.26-3.12-1-6.27-3.26-7.27-6.22V122c1,1.85,3.5,3.25,5.82,4,.1,0,.1,0,.2,0a1,1,0,0,0,.9-.69c.17-.53.07-1.09-.45-1.26-2.77-.89-5.46-2.89-6.46-5.51V118c0-.55-.67-1-1.22-1a1.16,1.16,0,0,0-1,.64,1,1,0,0,0-.35.85,12,12,0,0,1-6.7,5.55,1,1,0,0,0-.66,1.26,1,1,0,0,0,.94.69,3.05,3.05,0,0,0,.52,0,16.47,16.47,0,0,0,6.5-4.29v1.81c-1,.22-.48.51-.44.8a13.52,13.52,0,0,1-7.59,6.26,1,1,0,0,0-.7,1.26,1,1,0,0,0,.93.69,2.94,2.94,0,0,0,.51-.05,16.41,16.41,0,0,0,7.3-4.94v2.1c-1,.22-.48.52-.44.81a16.19,16.19,0,0,1-10,7.3,1,1,0,0,0-.8,1.2,1,1,0,0,0,.95.77,3.25,3.25,0,0,0,.44,0c4.3-1,6.87-3.54,9.87-6.09v2.16c-1,.22-.48.51-.44.8a13.56,13.56,0,0,1-7.59,6.26,1,1,0,0,0-.7,1.26,1,1,0,0,0,.92.69,2.94,2.94,0,0,0,.51-.05,16.41,16.41,0,0,0,7.3-4.94v2.1c-1,.22-.48.51-.44.8a13.56,13.56,0,0,1-7.59,6.26,1,1,0,0,0-.7,1.26,1,1,0,0,0,.92.69,2.94,2.94,0,0,0,.51-.05,16.41,16.41,0,0,0,7.3-4.94v2.1c-1,.22-.48.51-.44.8A13.52,13.52,0,0,1,33.12,155a1,1,0,0,0-.7,1.26,1,1,0,0,0,.93.69,2.94,2.94,0,0,0,.51,0,16.47,16.47,0,0,0,7.3-4.93v2.19c-1,.08-.37.16-.42.26a16.06,16.06,0,0,1-10.34,7.9,1,1,0,0,0-.8,1.2,1,1,0,0,0,.95.77,3.25,3.25,0,0,0,.44,0c4.52-1.07,7.18-3.8,10.18-6.47v2.49c-1,.08-.37.16-.42.26a13.63,13.63,0,0,1-7.92,6.85,1,1,0,0,0-.7,1.26,1,1,0,0,0,.92.69,2.94,2.94,0,0,0,.51-.05,16.28,16.28,0,0,0,7.6-5.31v9.39c0,.06-.16.11-.15.16-7.08-.46-13.85-.51-18.85-.36V167c1,1.7,3.44,3,5.59,3.68a1,1,0,0,0,.61-1.9c-2.6-.84-5.21-2.71-6.21-5.18v-1.81c1,1.7,3.44,3,5.59,3.69a1,1,0,0,0,.61-1.9c-2.6-.84-5.21-2.72-6.21-5.19v-1.8c1,1.7,3.44,3,5.59,3.69a1,1,0,0,0,.61-1.9c-2.6-.84-5.21-2.72-6.21-5.19v-1.87A16.2,16.2,0,0,0,29.92,156a.83.83,0,0,0,.22,0,1,1,0,0,0,1-.77,1,1,0,0,0-.71-1.2c-4.11-1-7.26-3.77-8.26-6.09v-1.79c1,1.7,3.44,3,5.59,3.69a1,1,0,0,0,.61-1.9c-2.6-.84-5.21-2.72-6.21-5.19v-1.56a9.74,9.74,0,0,0,4.9,3.14,1,1,0,0,0,.61-1.9,9.18,9.18,0,0,1-5.52-4.58v-.42a1,1,0,0,0-1-1,1,1,0,0,0-.94.61,1,1,0,0,0-.28.78,10,10,0,0,1-5.56,4.6,1,1,0,0,0,.3,2,1.33,1.33,0,0,0,.34-.05c2-.63,4.18-1.82,5.18-3.38v1.09c0,.2-.25.44-.23.69A11.27,11.27,0,0,1,13.62,148a1,1,0,0,0,.3,1.95,1.4,1.4,0,0,0,.34,0c2.25-.72,3.87-2.11,5.87-3.93v1.34c0,.2-.25.44-.23.68a13.38,13.38,0,0,1-8.31,6.1,1,1,0,0,0,.22,2,1.15,1.15,0,0,0,.26,0,16.33,16.33,0,0,0,8.06-4.91v1.39c0,.2-.25.44-.23.69a11.27,11.27,0,0,1-6.27,5.21,1,1,0,0,0,.3,1.95,1.4,1.4,0,0,0,.34,0c2.25-.72,3.87-2.11,5.87-3.93v1.34c0,.2-.25.44-.23.69a11.27,11.27,0,0,1-6.27,5.21,1,1,0,0,0,.3,1.95,1.4,1.4,0,0,0,.34-.05c2.25-.73,3.87-2.11,5.87-3.93v1.34c0,.2-.25.44-.23.69a11.21,11.21,0,0,1-6.27,5.2,1,1,0,0,0,.3,1.95,1.4,1.4,0,0,0,.34,0c2.25-.72,3.87-2.11,5.87-3.93v6.48c-8,.32-13.57,1.08-13.68,1.1a1,1,0,0,0-.85,1.14A.91.91,0,0,0,6.69,176.36Z"/></g></g></svg>