<svg xmlns="http://www.w3.org/2000/svg" viewBox="0 0 78 78"><defs><style>.a360b09b-a54c-421e-8e06-8cc3b8ad251e{fill:#231f20;}</style></defs><title>Asset 8</title><g id="fbaca6c0-aaa8-4a23-a97c-c01981aea5b6" data-name="Layer 2"><g id="be36ac15-1cc3-4d97-ada2-cb7f8d2352ed" data-name="Layer 1"><path d="M39,4A35,35,0,1,1,4,39,35,35,0,0,1,39,4m0-4A39,39,0,1,0,78,39,39,39,0,0,0,39,0Z"/></g><g id="bd618568-4f19-4d09-a92f-f69d3e329604" data-name="Layer 5"><path class="a360b09b-a54c-421e-8e06-8cc3b8ad251e" d="M25.1,57.56c.58-.5,1.08-1.08,1.66-1.58s1.22-.72,1.8.07a13.16,13.16,0,0,0,10.65,5.33c6.92,0,11.31-6.12,11.31-11.81S46.92,39.2,39.21,39.2H28.27A2.4,2.4,0,0,1,26,36.68v-19A1.36,1.36,0,0,1,27.4,16.3H49.15a1.37,1.37,0,0,1,1.37,1.37v2.09a1.37,1.37,0,0,1-1.37,1.37H30.86V34.38h8.35c10.88,0,16.64,5.68,16.64,15.12A16.36,16.36,0,0,1,39.14,66c-8,0-12.1-3.82-13.9-6C24.31,58.93,24.24,58.42,25.1,57.56Z"/></g></g></svg>