<svg xmlns="http://www.w3.org/2000/svg" viewBox="0 0 68.05 78"><defs><style>.b0d4a7ab-8fcc-481d-acc9-f94cdf8ee6fb{fill:#262626;}</style></defs><title>Learn</title><g id="e5cd502e-00b2-45e4-962a-26305ac015c9" data-name="Layer 2"><g id="a1bac52d-1d12-4234-af20-23c6ae5a2ca2" data-name="learn"><rect class="b0d4a7ab-8fcc-481d-acc9-f94cdf8ee6fb" x="27.06" y="5.97" width="1.83" height="1.83"/><path class="b0d4a7ab-8fcc-481d-acc9-f94cdf8ee6fb" d="M67,39.85a3.76,3.76,0,0,0-5.12,0L56.06,45.7V9.87H43.51V5.73h-9A6.58,6.58,0,0,0,28,0a6.79,6.79,0,0,0-6.58,5.73h-9V9.87H0V78H56.18V55.94l11-11A3.9,3.9,0,0,0,67,39.85ZM39.85,64.59l2.56,2.56-1.22,1.22-3.77,1.22,1.21-3.78Zm3.78,1.22-2.56-2.56L60,44.36l2.56,2.56ZM14.26,7.56h8.9v-1a4.88,4.88,0,0,1,9.75,0v.85H41.8v5.49H14.26Zm40.1,68.61H1.71V11.58H12.43v3.17H43.51V11.58H54.23v36L37.05,64.84l-2.56,7.55,7.56-2.56L54.23,57.65V76.17ZM65.81,43.75l-2.07,2.08-2.56-2.56,2.07-2.08a1.77,1.77,0,0,1,2.56,0A2,2,0,0,1,65.81,43.75Z"/><rect class="b0d4a7ab-8fcc-481d-acc9-f94cdf8ee6fb" x="7.31" y="21.45" width="41.32" height="1.83"/><rect class="b0d4a7ab-8fcc-481d-acc9-f94cdf8ee6fb" x="7.31" y="30.71" width="36.32" height="1.83"/><rect class="b0d4a7ab-8fcc-481d-acc9-f94cdf8ee6fb" x="7.31" y="39.97" width="41.32" height="1.83"/><rect class="b0d4a7ab-8fcc-481d-acc9-f94cdf8ee6fb" x="7.31" y="49.12" width="34.37" height="1.83"/><rect class="b0d4a7ab-8fcc-481d-acc9-f94cdf8ee6fb" x="7.31" y="58.38" width="19.74" height="1.83"/><rect class="b0d4a7ab-8fcc-481d-acc9-f94cdf8ee6fb" x="7.31" y="67.64" width="24.74" height="1.83"/></g></g></svg>