<svg xmlns="http://www.w3.org/2000/svg" viewBox="0 0 80 80"><defs><style>.a{fill:#0a76b3;}.b{fill:#fff;}.c{fill:#12abdc;}</style></defs><title>linkedin</title><rect class="a" x="-1" width="83" height="80"/><rect class="b" x="22.95" y="33.2" width="7.19" height="22.78"/><path class="b" d="M49.79,33c-4.12,0-6.7,2.23-7.18,3.8V33.2H34.53c.11,1.9,0,22.78,0,22.78h8.08V43.66a5.2,5.2,0,0,1,.18-1.87A4.11,4.11,0,0,1,46.68,39c2.81,0,4.08,2.11,4.08,5.19V56h8.15V43.32C58.91,36.26,54.9,33,49.79,33Z"/><path class="b" d="M26.42,22.45c-2.66,0-4.4,1.7-4.4,3.95a4,4,0,0,0,4.29,4h.06c2.7,0,4.38-1.75,4.38-4A4,4,0,0,0,26.42,22.45Z"/><path class="b" d="M30.9,36.35l.05.1H30.9Z"/><polygon class="c" points="22.95 58.62 23.04 58.8 22.95 58.8 22.95 58.62"/><polygon class="c" points="30.14 33.24 30.14 33.35 30.08 33.24 30.14 33.24"/><polygon class="b" points="22.95 55.84 23.04 56.02 22.95 56.02 22.95 55.84"/><polygon class="b" points="30.14 33.24 30.14 33.35 30.08 33.24 30.14 33.24"/></svg>