<svg xmlns="http://www.w3.org/2000/svg" viewBox="0 0 500 132"><defs><style>.a{fill:#279c49;}.b{fill:#65666a;}.c{fill:none;}.d{fill:#355caa;}</style></defs><title>MT Crime Victim Help logo</title><path class="a" d="M101.83,94.16V82.46a21.56,21.56,0,0,1-10.29-10l0,0a4.08,4.08,0,0,1-.32-3.87,3.87,3.87,0,0,1,3.15-1.91c2.52-.34,5-.8,7.49-1.34V51.8a6.31,6.31,0,0,0-6.29-6.29H83.16a6.31,6.31,0,0,0-6.29,6.29v45c0,.12,0,.22,0,.33h.29A98.47,98.47,0,0,0,101.83,94.16Z"/><circle class="a" cx="89.8" cy="25.87" r="12.93"/><path class="b" d="M128.76,56.83c1.75-.64,3.45-1.25,5.12-1.84a6.27,6.27,0,0,0-5.12-2.67H116.38a6.31,6.31,0,0,0-6.29,6.29v4.55c6.07-1.78,12-3.93,17.89-6Z"/><path class="b" d="M113.84,85.36a32.05,32.05,0,0,1-4.66-.33v6.51A71.15,71.15,0,0,0,124.5,84,48.08,48.08,0,0,1,113.84,85.36Z"/><circle class="b" cx="123.02" cy="32.68" r="12.93" transform="translate(45.75 133.83) rotate(-67.5)"/><path class="a" d="M192.1,62.83l-.33-.23a56.85,56.85,0,0,0-20.33-8.17,47.92,47.92,0,0,0-22.52.22C143,56.27,137.28,58.29,131,60.57l-.79.29c-10.83,3.92-22,8-33.8,9.64a17.56,17.56,0,0,0,9,8,26.27,26.27,0,0,0,10.19,1.94,48.52,48.52,0,0,0,11.84-1.72c2.15-.54,4.33-1.26,6.44-2,1-.34,2-.66,3-1l1-.31,2.28,2.08L139,78.94l-.26.31c-.29.33-.57.67-.91,1C129.67,87.82,119.71,93.3,107.33,97a101.74,101.74,0,0,1-29.44,4.11c-3,0-6-.11-9.07-.32a149,149,0,0,1-26.66-4.34,3.69,3.69,0,0,0-.85-.14c-.22,0-.28,0-.44.31s.07.7.74,1.08A141.9,141.9,0,0,0,81.37,113a126.26,126.26,0,0,0,25,2.9,128.26,128.26,0,0,0,13-.6A109.49,109.49,0,0,0,144.75,110a140.16,140.16,0,0,0,38-19.84c3.23-2.35,6.35-4.86,9.33-7.41V62.83Z"/><path class="a" d="M235.41,65.79,227.19,97.2c-1.2,4.66-4.81,5.11-7,5.11s-5.76-.45-7-5.11l-8.21-31.41c0-.1-.05-.15-.05-.25a.86.86,0,0,1,.9-.85h5.31a1.06,1.06,0,0,1,.95.85l7.27,30.11c.15.6.3.8.8.8s.65-.2.8-.8l7.26-30.11a1.06,1.06,0,0,1,1-.85h5.31a.86.86,0,0,1,.9.85C235.46,65.64,235.41,65.69,235.41,65.79Z"/><path class="a" d="M246.38,101.91h-5a1,1,0,0,1-1-1V65.64a1,1,0,0,1,1-1h5a1,1,0,0,1,1,1V100.9A1,1,0,0,1,246.38,101.91Z"/><path class="a" d="M276,101.51a37.81,37.81,0,0,1-7.91.8c-6,0-14.17-3-14.17-15.33V79.62c0-12.58,8.16-15.33,14.17-15.33a37.81,37.81,0,0,1,7.91.8c.66.2,1.11.45,1.11,1.15V69.6a.92.92,0,0,1-1,1.05H276c-1.75-.15-5.16-.4-7.81-.4-4.21,0-7.26,2.25-7.26,9.36V87c0,7,3,9.36,7.26,9.36,2.65,0,6.06-.25,7.81-.4h.1a.92.92,0,0,1,1,1v3.36C277.09,101.06,276.63,101.31,276,101.51Z"/><path class="a" d="M306.09,70.5h-8.77v30.41a1,1,0,0,1-1,1h-5a1,1,0,0,1-1-1V70.5h-8.77a.92.92,0,0,1-1-.9v-4a1,1,0,0,1,1-1h24.5a1,1,0,0,1,1,1v4A.92.92,0,0,1,306.09,70.5Z"/><path class="a" d="M318.06,101.91h-5a1,1,0,0,1-1-1V65.64a1,1,0,0,1,1-1h5a1,1,0,0,1,1,1V100.9A1,1,0,0,1,318.06,101.91Z"/><path class="a" d="M357.89,101.91h-5.06a1,1,0,0,1-.8-1V77.61c0-.35,0-.5-.16-.5s-.15.15-.25.3L346.82,87a1.82,1.82,0,0,1-1.61.85h-5.06a1.8,1.8,0,0,1-1.6-.85l-4.86-9.57c-.09-.15-.2-.3-.25-.3s-.15.15-.15.5V100.9a1,1,0,0,1-.8,1h-5.06a.76.76,0,0,1-.85-.75V66.69a2,2,0,0,1,2-2h4.1a2.09,2.09,0,0,1,1.85,1.2l7.57,15.33c.25.45.35.7.55.7s.3-.25.55-.7l7.56-15.33a2.13,2.13,0,0,1,1.86-1.2h4.1a2,2,0,0,1,2,2v34.47A.76.76,0,0,1,357.89,101.91Z"/><path class="a" d="M405.93,101.91h-5a1,1,0,0,1-1-1V85.58H385.74V100.9a1,1,0,0,1-1,1h-5a1,1,0,0,1-1-1V65.64a1,1,0,0,1,1-1h5a1,1,0,0,1,1,1V79.47H400V65.64a1,1,0,0,1,1-1h5a1,1,0,0,1,1,1V100.9A1,1,0,0,1,405.93,101.91Z"/><path class="a" d="M435.53,101.61a47.24,47.24,0,0,1-9.52.7c-6.51,0-11.57-1.75-11.57-10.27V74.55c0-8.51,5.06-10.27,11.57-10.27a46.88,46.88,0,0,1,9.52.71c.75.1,1,.35,1,1.05v3.2a1,1,0,0,1-1,1H425.31c-2.9,0-4,1-4,4.3V80h13.58a1,1,0,0,1,1,1v3.6a1,1,0,0,1-1,1H421.35V92c0,3.3,1.06,4.31,4,4.31h10.22a1,1,0,0,1,1,1v3.21C436.53,101.26,436.28,101.51,435.53,101.61Z"/><path class="a" d="M463.38,101.61a54.41,54.41,0,0,1-8.51.7c-6.52,0-11.58-1.75-11.58-10.27V65.69a1,1,0,0,1,1-1h5a1,1,0,0,1,1,1V92c0,3.3,1,4.31,3.9,4.31h9.22a1,1,0,0,1,1,1v3.21C464.38,101.26,464.13,101.46,463.38,101.61Z"/><path class="a" d="M480.57,88c-1.3,0-3.31-.15-4.46-.2V100.9a1,1,0,0,1-.95,1h-5a1,1,0,0,1-1-1V66.44c0-1,.61-1.35,1.61-1.5a68.3,68.3,0,0,1,9.81-.66C488.28,64.28,495,67,495,75.86v.45C495,85.18,488.28,88,480.57,88Zm7.51-12.17c0-4.21-2.5-5.81-7.51-5.81-1.05,0-3.56.1-4.46.2V82.17c.8,0,3.6.15,4.46.15,5.41,0,7.51-2,7.51-6Z"/><path class="c" d="M32.42,67.16h0a.05.05,0,0,0,0,0A.08.08,0,0,1,32.42,67.16Z"/><path class="c" d="M32.39,67s0,0,0-.06a.2.2,0,0,0,0,.07Z"/><path class="c" d="M32.59,64.25a2.72,2.72,0,0,0-.13-.56,4,4,0,0,1,.13.56Z"/><path class="c" d="M27.36,65.26a3,3,0,0,1-.09-.7,2.53,2.53,0,0,0,.09.7Z"/><path class="c" d="M30,80.32l.14-.15-.14.15Z"/><path class="c" d="M12.53,46.25a2.34,2.34,0,0,1-.38-.09h0A1.63,1.63,0,0,0,12.53,46.25Z"/><path class="c" d="M11.29,31.06a2.88,2.88,0,0,0-.27-.34h0A2.88,2.88,0,0,1,11.29,31.06Z"/><path class="c" d="M21.41,58.36h0a2.75,2.75,0,0,0,.14.49A3,3,0,0,1,21.41,58.36Z"/><path class="c" d="M21.38,58.15a2.26,2.26,0,0,1,0-.26,2.26,2.26,0,0,0,0,.26Z"/><path class="c" d="M21.41,58.36h0a2.75,2.75,0,0,0,.14.49A3,3,0,0,1,21.41,58.36Z"/><path class="c" d="M27.36,65.26a3,3,0,0,1-.09-.7,2.53,2.53,0,0,0,.09.7Z"/><path class="c" d="M21.38,58.15a2.26,2.26,0,0,1,0-.26,2.26,2.26,0,0,0,0,.26Z"/><path class="c" d="M30,80.32l.14-.15-.14.15Z"/><path class="c" d="M32.59,64.25a2.72,2.72,0,0,0-.13-.56,4,4,0,0,1,.13.56Z"/><path class="c" d="M11.29,31.06a2.88,2.88,0,0,0-.27-.34h0A2.88,2.88,0,0,1,11.29,31.06Z"/><path class="c" d="M32.42,67.16h0a.05.05,0,0,0,0,0A.08.08,0,0,1,32.42,67.16Z"/><path class="c" d="M32.39,67s0,0,0-.06a.2.2,0,0,0,0,.07Z"/><path class="c" d="M12.53,46.25a2.34,2.34,0,0,1-.38-.09h0A1.63,1.63,0,0,0,12.53,46.25Z"/><path class="d" d="M69.94,58.61a6.31,6.31,0,0,0-6.28-6.29H51.28A6.31,6.31,0,0,0,45,58.61v34a143,143,0,0,0,25,4.1V58.61Z"/><circle class="d" cx="57.92" cy="32.68" r="12.93"/><path class="d" d="M238.86,51.47H233.8a1,1,0,0,1-.8-1V27.17c0-.35-.05-.5-.15-.5s-.15.15-.25.3l-4.81,9.57a1.8,1.8,0,0,1-1.6.85h-5.06a1.8,1.8,0,0,1-1.6-.85L214.67,27c-.1-.15-.2-.3-.25-.3s-.15.15-.15.5v23.3a1,1,0,0,1-.8,1h-5.06a.76.76,0,0,1-.85-.75V16.25a2,2,0,0,1,2-2h4.11a2.1,2.1,0,0,1,1.85,1.2l7.57,15.33c.25.45.35.7.55.7s.3-.25.55-.7l7.56-15.33a2.1,2.1,0,0,1,1.85-1.2h4.11a2,2,0,0,1,2,2V50.72A.76.76,0,0,1,238.86,51.47Z"/><path class="d" d="M270.22,20.06h-8.76V50.47a1,1,0,0,1-1,1h-5a1,1,0,0,1-1-1V20.06h-8.76a.93.93,0,0,1-1-.9v-4a1,1,0,0,1,1-.95h24.49a1,1,0,0,1,1,.95v4A.93.93,0,0,1,270.22,20.06Z"/><path class="d" d="M309.85,51.07a37.91,37.91,0,0,1-7.91.8c-6,0-14.18-2.95-14.18-15.33V29.18c0-12.57,8.16-15.33,14.18-15.33a37.91,37.91,0,0,1,7.91.8c.65.2,1.1.45,1.1,1.16v3.35c0,.6-.25,1.05-1,1.05h-.1c-1.75-.15-5.16-.4-7.82-.4-4.2,0-7.26,2.25-7.26,9.37v7.36c0,7,3.06,9.37,7.26,9.37,2.66,0,6.07-.25,7.82-.41h.1c.75,0,1,.46,1,1.06v3.35C311,50.62,310.5,50.87,309.85,51.07Z"/><path class="d" d="M343.41,51.47H337.3c-.55,0-.75-.5-1-1l-7.22-13.38h-.7c-1.3,0-3.3-.15-4.46-.2V50.47a1,1,0,0,1-.95,1h-5a1,1,0,0,1-1-1V16c0-1,.6-1.35,1.6-1.5a68.48,68.48,0,0,1,9.82-.65c7.71,0,14.42,2.75,14.42,11.32v.45c0,5.31-2.65,8.62-6.76,10.22l7.87,14.63a.73.73,0,0,1,.09.4A.54.54,0,0,1,343.41,51.47Zm-7.51-26.3c0-3.75-2.51-5.36-7.52-5.36-1.05,0-3.55.1-4.46.2V31.29c.8.05,3.61.15,4.46.15,5.16,0,7.52-1.41,7.52-5.81Z"/><path class="d" d="M355.64,51.47h-5a1,1,0,0,1-1-1V15.2a1,1,0,0,1,1-.95h5a1,1,0,0,1,1,.95V50.47A1,1,0,0,1,355.64,51.47Z"/><path class="d" d="M395.46,51.47H390.4a1,1,0,0,1-.8-1V27.17c0-.35-.05-.5-.15-.5s-.15.15-.25.3l-4.81,9.57a1.8,1.8,0,0,1-1.6.85h-5.06a1.79,1.79,0,0,1-1.6-.85L371.27,27c-.1-.15-.2-.3-.25-.3s-.15.15-.15.5v23.3a1,1,0,0,1-.81,1H365a.77.77,0,0,1-.86-.75V16.25a2,2,0,0,1,2-2h4.11a2.1,2.1,0,0,1,1.85,1.2l7.56,15.33c.25.45.35.7.55.7s.3-.25.55-.7l7.57-15.33a2.1,2.1,0,0,1,1.85-1.2h4.11a2,2,0,0,1,2,2V50.72A.76.76,0,0,1,395.46,51.47Z"/><path class="d" d="M424.91,51.17a47.19,47.19,0,0,1-9.51.7c-6.52,0-11.58-1.75-11.58-10.27V24.12c0-8.52,5.06-10.27,11.58-10.27a47.19,47.19,0,0,1,9.51.7c.76.1,1,.35,1,1v3.21a1,1,0,0,1-1,1H414.69c-2.9,0-4,1-4,4.31v5.41h13.58a1,1,0,0,1,1,1v3.61a1,1,0,0,1-1,1H410.73V41.6c0,3.31,1.06,4.31,4,4.31h10.22a1,1,0,0,1,1,1v3.21C425.92,50.82,425.67,51.07,424.91,51.17Z"/><path class="d" d="M95.78,120.41v0c0-.27,0-.6,0-.86-4.21-.35-8.38-.9-12.48-1.65l-.08,0a3.68,3.68,0,0,0-.57.8,2.76,2.76,0,0,0-.26,1.61l-.19.31-.16.3a2.59,2.59,0,0,0-.68-.09h-.21a3,3,0,0,0-1.59.47,2.91,2.91,0,0,0-1.88-.68,3.5,3.5,0,0,0-1.06.17,2.89,2.89,0,0,0-1.35.25,2.81,2.81,0,0,0-1.58.23,3.54,3.54,0,0,0-.7-.17l-.16,0a2.72,2.72,0,0,0-.48-.33,2.84,2.84,0,0,0-1.6-.48h-.35a3,3,0,0,0-1.8.52,2.77,2.77,0,0,0-.74.48,2.63,2.63,0,0,0-.86.57,2.74,2.74,0,0,0-.47.62,1.37,1.37,0,0,0-.29,0,3,3,0,0,0-1.1-.19,3.61,3.61,0,0,0-1.23-.21h-.25a2.9,2.9,0,0,0-1.52-.42,4,4,0,0,0-.79.08,3.88,3.88,0,0,0-1,.38,3.08,3.08,0,0,0-1.31.75,3.17,3.17,0,0,0-.31-.79,2.74,2.74,0,0,0-.15-.53,3.26,3.26,0,0,0,.12-.87,3.08,3.08,0,0,0-.28-1.26,2.93,2.93,0,0,0-.59-1.62,3.14,3.14,0,0,0-.52-1.25,2.82,2.82,0,0,0-1.72-2.1,3.39,3.39,0,0,0-1-.77l-.22-.1a2.71,2.71,0,0,0-1.77-.67,2.86,2.86,0,0,0-.81.13l-.21-.15a3.23,3.23,0,0,0,.25-1.26,1.48,1.48,0,0,0,0-.21,2.65,2.65,0,0,0,.15-.87,3.38,3.38,0,0,0-.16-1,2.93,2.93,0,0,0-.07-.67,3.66,3.66,0,0,0-.43-1.13q-4.83-2.16-9.5-4.68a4.81,4.81,0,0,0,.5.82l0,.07a3.84,3.84,0,0,0,.11.46,3,3,0,0,0,.78,1.41,1,1,0,0,0,.18.17.37.37,0,0,0,0,.11,2.92,2.92,0,0,0,.57.79c0,.1.05.21.08.32a3.81,3.81,0,0,0,.22.65,2.8,2.8,0,0,0,.65,1.24l.07.09a3.67,3.67,0,0,0,.77.71l.25.36.06.07a2.71,2.71,0,0,0-.52.92,3.31,3.31,0,0,0-.17,1,3,3,0,0,0,.2,1.07,2.91,2.91,0,0,0,.37.75,2.53,2.53,0,0,0,.2.81,3.39,3.39,0,0,0,1,1.55,4.56,4.56,0,0,0,.83.64,2.94,2.94,0,0,0,1.06,1.38,3,3,0,0,0,3.06.29l.08,0a2.56,2.56,0,0,0,.33.48,2.81,2.81,0,0,0,.31.94l-.18.18v1.11a2.73,2.73,0,0,0,.64,1.75s0,0,0,0l.1.17a2.77,2.77,0,0,0,.29.82,3.33,3.33,0,0,0,.17,1.1s0,0,0,0c0,.18.08.43.11.55a3.76,3.76,0,0,0,.8,1.48c.18.21.37.4.38.41a2.3,2.3,0,0,0,.41.35l0,0a4.7,4.7,0,0,0,1,.72l.09.05a4.4,4.4,0,0,0,.42.53l.18.18a3.81,3.81,0,0,0,.9.68,2.82,2.82,0,0,0,1.24.29,3.12,3.12,0,0,0,1.36-.32,4.16,4.16,0,0,0,.93-.67l.21-.21a3.16,3.16,0,0,0,.72-1.18,3.82,3.82,0,0,0,.16-.79h.22l.39,0a3.16,3.16,0,0,0,1,.23,2.81,2.81,0,0,0,1.92.43l.48.23a3.14,3.14,0,0,0,1.17.24,3,3,0,0,0,2.48-1.32l0-.07a2.93,2.93,0,0,0,.47-.82,2.88,2.88,0,0,0,1,.2,2.82,2.82,0,0,0,2.64.16,3.38,3.38,0,0,0,.76-.1,3.13,3.13,0,0,0,1.24-.17,3.84,3.84,0,0,0,.52.43,3,3,0,0,0,2.53.34,3.24,3.24,0,0,0,.6-.27l.07,0,.61-.26a2.18,2.18,0,0,0,.31-.18,2.3,2.3,0,0,0,.42-.14,2.83,2.83,0,0,0,1.59,0l.25.12a4.25,4.25,0,0,0,1.44.26,3,3,0,0,0,2.19-.81,2.83,2.83,0,0,0,.68-1.09,3.21,3.21,0,0,0,.72.58,3.57,3.57,0,0,0,.4.46h0a4.28,4.28,0,0,0,.45,1A3.11,3.11,0,0,0,91,128.1l.12.05a4.71,4.71,0,0,0,.45.22,6.13,6.13,0,0,0,.58.21l.3.15h1.75l.78-.79a3.35,3.35,0,0,0,.81-2.65l0-2.29c0-.39,0-.73,0-.78v-.63C95.75,121.31,95.76,120.79,95.78,120.41Zm-38.5,2.93h0a2.63,2.63,0,0,1,.49.07A3,3,0,0,0,57.28,123.34Zm11-2.23a2.35,2.35,0,0,1,.32-.27h0A4.09,4.09,0,0,0,68.25,121.11Zm4.53,0a2.09,2.09,0,0,0-.22-.2,1.9,1.9,0,0,1,.22.2Zm1,2.38a2.82,2.82,0,0,1,.07-.59h0A2.79,2.79,0,0,0,73.76,123.47Z"/><path class="d" d="M186.76,112.1H150.2c-1.41.52-2.82,1-4.24,1.51a114.58,114.58,0,0,1-14.7,3.82h57.4a3.43,3.43,0,0,0,3.43-3.43V87.72c-1.83,1.51-3.59,2.9-5.33,4.22V112.1Z"/><path class="d" d="M192.1,4.48a3.44,3.44,0,0,0-3.43-3.43H9.81A3.44,3.44,0,0,0,6.38,4.48v9c0,.13,0,.38-.06.65l-.06.57c0,.44-.09,1-.12,1.32s0,.49,0,.62-.07.65-.08.95,0,.53,0,.64a.93.93,0,0,1,0,.14c0,.22,0,.56,0,.78s0,.48-.05.8l0,.29c0,.34-.06.7-.07.83s0,.39-.06.52,0,.21,0,.36a2.71,2.71,0,0,1,0,.33,5.07,5.07,0,0,0-.08.79v.28a.86.86,0,0,1,0,.16c0,.29-.07.86-.09,1.12s-.05.77-.08,1-.1.84-.12,1.16c0,.14,0,.41,0,.63a3.36,3.36,0,0,0-.07.67h0c0,.13,0,.38-.06.66,0,.09-.08.89-.08,1.28v.31a2.49,2.49,0,0,0,.15.87v1.95H6.21a2.8,2.8,0,0,0,.55.73c.06.13.13.24.2.36l.06.08a4.45,4.45,0,0,0,.22.45,3.74,3.74,0,0,0,.28.52,3.79,3.79,0,0,0,.44.54l.15.16a3.17,3.17,0,0,0,.18.62,2.92,2.92,0,0,0,.28.92,2.84,2.84,0,0,0,.56.79,3.17,3.17,0,0,0,.34.3,2.21,2.21,0,0,0,.33.47,4.34,4.34,0,0,0,.06.73l.06.23a3.47,3.47,0,0,0-.46.89,3.31,3.31,0,0,0-.17,1,2.85,2.85,0,0,0,.42,1.48,3.9,3.9,0,0,0-.24.65,3,3,0,0,0,.21,2.05,1.66,1.66,0,0,0,.14.25,2.8,2.8,0,0,0,.37.53,2.85,2.85,0,0,0,.23.26,3.2,3.2,0,0,0,.79.56A2.79,2.79,0,0,0,12.69,49l.06.12v0a2.87,2.87,0,0,0,1.14,1.68l.28.21a3.8,3.8,0,0,0,.61.39c.1,0,.19.09.29.12a2.94,2.94,0,0,0,.67.32,2.94,2.94,0,0,0,.79.42,2.67,2.67,0,0,0,1.13,1.81,2.75,2.75,0,0,0,1.26,1.24,3.08,3.08,0,0,0,.54.75,1.74,1.74,0,0,0,.1.19,2.56,2.56,0,0,0,.11.24c0,.07.14.25.23.42a4.86,4.86,0,0,0,.38.54,3,3,0,0,0,.32,1,2.64,2.64,0,0,0,1.61,1.89,2.75,2.75,0,0,0,.05,1.21,2.32,2.32,0,0,0,.36.8.29.29,0,0,1,0,.09,3,3,0,0,0,.87,1.28,3.18,3.18,0,0,0,.3.36,2.77,2.77,0,0,0,.91.6,2.67,2.67,0,0,0,.71,2l.13.15a2.9,2.9,0,0,0,2.25,1.17h.06l.05.06A3,3,0,0,0,29,69.23l.45.26a2.87,2.87,0,0,0,1.3.32h.11a2.65,2.65,0,0,0,.67-.08,2.68,2.68,0,0,0-.22,1.06v.34a4.21,4.21,0,0,0,.09.87,3.26,3.26,0,0,0-.55,2.34,1.55,1.55,0,0,0-.12.22,1,1,0,0,0-.07.15,2.61,2.61,0,0,0-.62.81,3,3,0,0,0-.32,1.34v.41a2.67,2.67,0,0,0-.75,1h0a3,3,0,0,0-.49,1.6,4.1,4.1,0,0,0,.06.66A3.28,3.28,0,0,0,29,81.82,2.92,2.92,0,0,0,29.17,84a3.13,3.13,0,0,0,.29,1,3.5,3.5,0,0,0,.23.38l-.16.09a3.18,3.18,0,0,0-1,1.16l-.08.15a3,3,0,0,0-.21.54c-.05,0-.1.09-.15.15a3.26,3.26,0,0,0-.61.83A2.87,2.87,0,0,0,27.62,91a.56.56,0,0,1,.05.08l0,.06a2.84,2.84,0,0,0-.77,1.94,2.77,2.77,0,0,0,.1.74,3.41,3.41,0,0,0-.1.82,3.1,3.1,0,0,0,.85,2.2,2.76,2.76,0,0,0,1.77.8l.19.07a3.53,3.53,0,0,0,1,1,4.08,4.08,0,0,0,.4.64,3.4,3.4,0,0,0,1.48,1.07l.44.14h.44a3.37,3.37,0,0,0,1.64-.46l.21-.11a5.29,5.29,0,0,0,.78-.4,2.59,2.59,0,0,0,.5-.44,5.3,5.3,0,0,1,0-5.07,5.17,5.17,0,0,1,4.75-2.91,8,8,0,0,1,2.06.29l.25.06a2.82,2.82,0,0,0-1-1.24,1.46,1.46,0,0,0-.24-.17l0,0a3.91,3.91,0,0,0-.72-.48l-.13-.07a2.87,2.87,0,0,0-2.4-.06l-.06,0a3.15,3.15,0,0,0-1.28.75A2.74,2.74,0,0,0,37,91.79a4.74,4.74,0,0,0-.71.8v0a2.65,2.65,0,0,0-.66.53h-.31a2.75,2.75,0,0,0-1.66.56,2.42,2.42,0,0,0-.35-.44,4.78,4.78,0,0,0,.27-1,3.46,3.46,0,0,0-.07-1.81h0a2,2,0,0,0-.08-.33,3.75,3.75,0,0,0,2.47-3.26v-.21a3.26,3.26,0,0,0-.11-.82,2.87,2.87,0,0,0-.37-.86v-.3a3.3,3.3,0,0,0-.52-1.79l-.14-.2a.35.35,0,0,0,0-.08.56.56,0,0,0,0-.12c.06-.26.11-.6.12-.66a4.38,4.38,0,0,0,.06-.65,2.32,2.32,0,0,0-.06-.55,3.42,3.42,0,0,0,.5-1.57,7.16,7.16,0,0,0,0-.73v-.2c0-.1,0-.2,0-.3a2.67,2.67,0,0,0,.48-1.55A3.71,3.71,0,0,0,36.17,75q0-.17,0-.27a3.53,3.53,0,0,0,.58-1.39s0-.06,0-.08a3.24,3.24,0,0,0,.18-1,3.27,3.27,0,0,0,.28-.41,3,3,0,0,0,.46-1.64A3,3,0,0,0,38,69a3.69,3.69,0,0,0,.21-1.15h0a4.22,4.22,0,0,0,.07-.71A3.07,3.07,0,0,0,38,65.93a2.91,2.91,0,0,0-1.42-1.62l-.25-.11a2.76,2.76,0,0,0-2-.34,3.26,3.26,0,0,0-.76.12,3.61,3.61,0,0,0-.81.17,3.1,3.1,0,0,0-.58-1,2.89,2.89,0,0,0-1.62-1.25,2.85,2.85,0,0,0-.78-.25l-.08,0a2.87,2.87,0,0,0-1.35-1,2.62,2.62,0,0,0-.51-.54,3,3,0,0,0,.06-.59,2.87,2.87,0,0,0-.32-1.3,3.71,3.71,0,0,0-.6-.83,3.57,3.57,0,0,0-.45-.38c-.08-.15-.15-.28-.23-.4a2.76,2.76,0,0,0-.91-1l-.06-.16a2.63,2.63,0,0,0-.39-.89,3.61,3.61,0,0,0-.52-.68l-.12-.11a3.14,3.14,0,0,0-.81-1.25,3.84,3.84,0,0,0-.7-1,4.77,4.77,0,0,0-.54-.46h0a3,3,0,0,0-.36-.56,3,3,0,0,0-.6-1.23,3.18,3.18,0,0,0-.71-1.15A3.12,3.12,0,0,0,19,47.23l-.34-.1a2.94,2.94,0,0,0-1-.41,2.91,2.91,0,0,0-.87-1.46,3.58,3.58,0,0,0-.26-.29l-.08-.08a3.22,3.22,0,0,0-.35-.3,3,3,0,0,0,.06-.59v-.14A2.7,2.7,0,0,0,15.44,42a3.36,3.36,0,0,0,.32-1.87s0-.1,0-.14a3.23,3.23,0,0,0-.38-1.38,4.57,4.57,0,0,0,0-.51,3.08,3.08,0,0,0-.51-1.65,4,4,0,0,0-.57-.67,2.26,2.26,0,0,0-.13-.33,3.69,3.69,0,0,0-.64-.87l0,0a3.11,3.11,0,0,0-.07-.47,3,3,0,0,0-.85-1.57,2.58,2.58,0,0,0-.88-.86,2.59,2.59,0,0,0-.19-.33,2.82,2.82,0,0,0-.67-1.09,2.92,2.92,0,0,0-.45-.9v0s0-.08,0-.13c0-.56.07-.77.07-.89a4.29,4.29,0,0,0,.08-.7c0-.09,0-.29,0-.47s.05-.61.08-.84.1-1,.13-1.39,0-.68.05-.75a6,6,0,0,0,.06-.78v-.19c0-.3.08-.68.09-.8s0-.37,0-.46,0-.08,0-.12c.05-.32.11-1.08.12-1.17l0-.29c0-.2.07-.89.07-1.15a1,1,0,0,1,0-.17,5.92,5.92,0,0,0,.05-.62c0-.09,0-.28,0-.47s0-.53.06-.65.06-.59.08-.9.07-.78.11-1.17l.05-.57a10.91,10.91,0,0,0,.09-1.1V6.37H186.78V55.43a54.2,54.2,0,0,1,5.33,2.87V4.48ZM30,80.32h0l.14-.15Zm7.11-15.44a3.17,3.17,0,0,0-.48-.49A3.17,3.17,0,0,1,37.12,64.88Zm-4.53-.63h0a2.93,2.93,0,0,0-.13-.56A3.57,3.57,0,0,1,32.59,64.25Zm-.17,2.91a.08.08,0,0,0,0,0,.05.05,0,0,1,0,0Zm0-.15h0a.2.2,0,0,1,0-.07A.13.13,0,0,0,32.39,67Zm-5-1.75h0a2.53,2.53,0,0,1-.09-.7A3,3,0,0,0,27.36,65.26Zm-.69-7.8a3,3,0,0,0-.11-.43A3,3,0,0,1,26.67,57.46Zm-5.26.9a3,3,0,0,0,.14.49,2.75,2.75,0,0,1-.14-.49Zm0-.21h0a2.26,2.26,0,0,1,0-.26A2.35,2.35,0,0,0,21.38,58.15Zm-8.85-11.9a1.63,1.63,0,0,1-.38-.09h0A2.34,2.34,0,0,0,12.53,46.25ZM11.29,31.06a2.88,2.88,0,0,0-.27-.34h0A2.88,2.88,0,0,1,11.29,31.06Z"/></svg>