<svg xmlns="http://www.w3.org/2000/svg" viewBox="0 0 78 78"><defs><style>.bf0903ca-f4a7-4b21-97b2-c763e07b3803{fill:#262626;}</style></defs><title>Asset 6</title><g id="a5456ac6-2cee-4229-bf41-eda9eddcd638" data-name="Layer 2"><g id="bfc4985f-9bc8-4d0a-a039-42bfdabd3ecc" data-name="question"><path class="bf0903ca-f4a7-4b21-97b2-c763e07b3803" d="M46.2,21.45A11.5,11.5,0,0,0,38,18.15a13.21,13.21,0,0,0-5,.9,11.73,11.73,0,0,0-3.9,2.55l2.7,2.85c.45-.45.9-.75,1.2-1.05l1.35-.9a4.49,4.49,0,0,1,1.5-.6,7.3,7.3,0,0,1,1.8-.15,6.72,6.72,0,0,1,3,.6,8.06,8.06,0,0,1,2.4,1.5,7.18,7.18,0,0,1,1.5,2.55,12.78,12.78,0,0,1,.6,3.45,8.73,8.73,0,0,1-.45,2.85,9.56,9.56,0,0,1-1.2,2.1,6.39,6.39,0,0,1-1.8,1.65,17,17,0,0,0-2,1.5,19,19,0,0,0-2,1.65A23.07,23.07,0,0,0,36,41.55a11.26,11.26,0,0,0-1.2,2.7A13.51,13.51,0,0,0,34.35,48v1.8h4V47.1a8.85,8.85,0,0,1,.3-2.1,6.06,6.06,0,0,1,1.5-2.55,9.59,9.59,0,0,1,2.25-2c.75-.6,1.65-1.2,2.4-1.8a15.91,15.91,0,0,0,2.25-2.25,14.18,14.18,0,0,0,1.65-3,13.07,13.07,0,0,0,.6-4.5,13,13,0,0,0-.75-4.2A18.68,18.68,0,0,0,46.2,21.45Z"/><path class="bf0903ca-f4a7-4b21-97b2-c763e07b3803" d="M38.4,54.9c-.3-.3-.6-.45-.9-.75a2.83,2.83,0,0,0-1.2-.3,3.53,3.53,0,0,0-1.2.3,4,4,0,0,0-.9.75,3.14,3.14,0,0,0-.6.9,2.92,2.92,0,0,0-.15,1.2,3.53,3.53,0,0,0,.3,1.2c.15.3.3.75.6.9a3.14,3.14,0,0,0,.9.6,1.8,1.8,0,0,0,1.2.3,2.17,2.17,0,0,0,1-.3,4,4,0,0,0,.9-.75,3.14,3.14,0,0,0,.6-.9,2.92,2.92,0,0,0,.15-1.2A2.55,2.55,0,0,0,39,55.8,3.14,3.14,0,0,0,38.4,54.9Z"/><path class="bf0903ca-f4a7-4b21-97b2-c763e07b3803" d="M39,0A39,39,0,1,0,78,39,39.11,39.11,0,0,0,39,0Zm0,75A36,36,0,1,1,75,39,36.11,36.11,0,0,1,39,75Z"/></g></g></svg>