<svg xmlns="http://www.w3.org/2000/svg" viewBox="0 0 78 78"><defs><style>.b1b7836b-5e2b-4b79-a257-ff34e9aa07f0{fill:#231f20;}</style></defs><title>Asset 1</title><g id="b4c5323b-3689-4e32-8acd-144c98600890" data-name="Layer 2"><g id="f3f4d308-b3f8-4b53-a23f-7577e764d044" data-name="Layer 1"><path d="M39,4A35,35,0,1,1,4,39,35,35,0,0,1,39,4m0-4A39,39,0,1,0,78,39,39,39,0,0,0,39,0Z"/></g><g id="f64155d6-0890-4fd0-8593-d76aba8df68f" data-name="Layer 8"><path class="b1b7836b-5e2b-4b79-a257-ff34e9aa07f0" d="M29,63.11l20.09-42H25.52a1.42,1.42,0,0,1-1.37-1.37V17.67a1.42,1.42,0,0,1,1.37-1.37H54.46a1.42,1.42,0,0,1,1.37,1.37v.5l-21,45.22a2.77,2.77,0,0,1-2.37,1.88H30.34A1.42,1.42,0,0,1,29,63.9Z"/></g></g></svg>