<svg xmlns="http://www.w3.org/2000/svg" viewBox="0 0 77.5 77.5"><defs><style>.b76bbbb8-c500-42c9-bf73-fedc93f3435a{fill:none;}.fb095d09-0f93-4e95-be40-208483378477{fill:#262626;}</style></defs><title>Question</title><g id="fa83a14f-5c7e-4f86-a786-f60bebecd16c" data-name="Layer 2"><g id="a7dfef1e-1af5-4567-9882-e28d94897f65" data-name="question"><path class="b76bbbb8-c500-42c9-bf73-fedc93f3435a" d="M38.75,2.75a36,36,0,1,0,36,36A36.11,36.11,0,0,0,38.75,2.75Zm0,55.05a3.14,3.14,0,0,1-.6.9,4,4,0,0,1-.9.75,2.17,2.17,0,0,1-1,.3,1.8,1.8,0,0,1-1.2-.3,3.14,3.14,0,0,1-.9-.6c-.3-.15-.45-.6-.6-.9a3.53,3.53,0,0,1-.3-1.2,2.92,2.92,0,0,1,.15-1.2,3.14,3.14,0,0,1,.6-.9,4,4,0,0,1,.9-.75,3.53,3.53,0,0,1,1.2-.3,2.83,2.83,0,0,1,1.2.3c.3.3.6.45.9.75a3.14,3.14,0,0,1,.6.9,2.55,2.55,0,0,1,.15,1.05A2.92,2.92,0,0,1,38.75,57.8ZM48.5,33.2a14.18,14.18,0,0,1-1.65,3,15.91,15.91,0,0,1-2.25,2.25c-.75.6-1.65,1.2-2.4,1.8a9.59,9.59,0,0,0-2.25,2,6.06,6.06,0,0,0-1.5,2.55,8.85,8.85,0,0,0-.3,2.1v2.7h-4v-1.8A13.51,13.51,0,0,1,34.55,44a11.26,11.26,0,0,1,1.2-2.7,23.07,23.07,0,0,1,1.8-1.95,19,19,0,0,1,2-1.65,17,17,0,0,1,2-1.5,6.39,6.39,0,0,0,1.8-1.65,9.56,9.56,0,0,0,1.2-2.1,8.73,8.73,0,0,0,.45-2.85,12.78,12.78,0,0,0-.6-3.45,7.18,7.18,0,0,0-1.5-2.55,8.06,8.06,0,0,0-2.4-1.5,6.72,6.72,0,0,0-3-.6,7.3,7.3,0,0,0-1.8.15,4.49,4.49,0,0,0-1.5.6l-1.35.9c-.3.3-.75.6-1.2,1.05l-2.7-2.85a11.73,11.73,0,0,1,3.9-2.55,13.21,13.21,0,0,1,5-.9A11.5,11.5,0,0,1,46,21.2a18.68,18.68,0,0,1,2.4,3.3,13,13,0,0,1,.75,4.2A13.07,13.07,0,0,1,48.5,33.2Z"/><path class="fb095d09-0f93-4e95-be40-208483378477" d="M45.77,21.38A11.29,11.29,0,0,0,42.25,19a11.43,11.43,0,0,0-4.55-.88,13.17,13.17,0,0,0-4.86.88,11.63,11.63,0,0,0-3.64,2.33l2.36,2.49c.19-.18.38-.34.55-.48s.33-.27.46-.4L34,22a4.63,4.63,0,0,1,1.58-.63,7.4,7.4,0,0,1,1.86-.16,6.73,6.73,0,0,1,3.11.63A8.36,8.36,0,0,1,43,23.4l0,0,0,0a7.45,7.45,0,0,1,1.54,2.64,12.79,12.79,0,0,1,.61,3.52,9.17,9.17,0,0,1-.46,2.93,9.91,9.91,0,0,1-1.24,2.17,6.57,6.57,0,0,1-1.87,1.71L41,36.8a10.08,10.08,0,0,0-1.36,1.08,19.48,19.48,0,0,0-2,1.65A21.18,21.18,0,0,0,36,41.46a10.88,10.88,0,0,0-1.16,2.61,13.2,13.2,0,0,0-.44,3.68V49.3H37.9V46.85a8.82,8.82,0,0,1,.31-2.16A6.44,6.44,0,0,1,39.77,42a10.25,10.25,0,0,1,2.29-2c.36-.29.79-.6,1.19-.89s.82-.6,1.19-.9A15.38,15.38,0,0,0,46.66,36a14.12,14.12,0,0,0,1.61-2.93,13,13,0,0,0,.58-4.41,12.38,12.38,0,0,0-.73-4.09A17.77,17.77,0,0,0,45.77,21.38Z"/><path class="fb095d09-0f93-4e95-be40-208483378477" d="M38,54.83a2.79,2.79,0,0,0-.42-.35l-.45-.37a2.54,2.54,0,0,0-1.05-.26,2.37,2.37,0,0,0-.85.19l-.27.1a4.18,4.18,0,0,0-.8.69,3,3,0,0,0-.56.83,2.93,2.93,0,0,0-.12,1.09,2.37,2.37,0,0,0,.19.85l.1.27a1.14,1.14,0,0,0,.08.16,1.36,1.36,0,0,0,.39.6h0l0,0a3,3,0,0,0,.83.56,1.64,1.64,0,0,0,1.09.27,2,2,0,0,0,.94-.27,4.25,4.25,0,0,0,.83-.71,3,3,0,0,0,.56-.83,2.93,2.93,0,0,0,.12-1.09,2.46,2.46,0,0,0-.12-.94A3,3,0,0,0,38,54.83Z"/><path class="fb095d09-0f93-4e95-be40-208483378477" d="M38.75,0A38.75,38.75,0,1,0,77.5,38.75,38.79,38.79,0,0,0,38.75,0Zm0,75A36.25,36.25,0,1,1,75,38.75,36.29,36.29,0,0,1,38.75,75Z"/></g></g></svg>