<svg xmlns="http://www.w3.org/2000/svg" viewBox="0 0 78 78"><defs><style>.b99bf7b4-b7dc-40bc-8992-f3b77930697d{fill:#231f20;}</style></defs><title>Asset 7</title><g id="aaf41cd6-6235-4ff0-9c68-2a4c6c43acf7" data-name="Layer 2"><g id="b24108ca-1349-43af-922d-75845f31c91d" data-name="Layer 1"><path d="M39,4A35,35,0,1,1,4,39,35,35,0,0,1,39,4m0-4A39,39,0,1,0,78,39,39,39,0,0,0,39,0Z"/></g><g id="b212dc78-1431-4e20-a026-8c19a885b287" data-name="Layer 4"><path class="b99bf7b4-b7dc-40bc-8992-f3b77930697d" d="M18.57,52.81V50.14l27.29-34.2a1.29,1.29,0,0,1,1.08-.43h1.44a1.37,1.37,0,0,1,1.37,1.37l.07,32.9h5.84A1.31,1.31,0,0,1,57,51.08v1.58A1.36,1.36,0,0,1,55.66,54H49.82V63.9a1.42,1.42,0,0,1-1.36,1.37H46a1.42,1.42,0,0,1-1.37-1.37V54.18H19.94A1.37,1.37,0,0,1,18.57,52.81Zm26.36-3.1V24.65L24.62,49.71Z"/></g></g></svg>