<svg xmlns="http://www.w3.org/2000/svg" viewBox="0 0 77.5 55.4"><defs><style>.adc05194-88b6-4ec3-b78c-e1c064157339{fill:#262626;}</style></defs><title>Toolbox</title><g id="b5ce366b-2851-4178-b76d-807a2e2a8ee8" data-name="Layer 2"><g id="acb5cc27-aaa1-4458-93ce-77cd773ff49d" data-name="toolbox"><path class="adc05194-88b6-4ec3-b78c-e1c064157339" d="M65.8,18.2V1.05a1,1,0,0,0-.31-.74A1,1,0,0,0,64.75,0h-52A1,1,0,0,0,11.7,1.05V18.2H1.05a1,1,0,0,0-.74.31,1,1,0,0,0-.31.74v14.3A1,1,0,0,0,1.05,34.6H2.6V54.35a1,1,0,0,0,1,1h70.2a1,1,0,0,0,1.05-1V34.6h1.55a1,1,0,0,0,1-1.05V19.25a1,1,0,0,0-1-1.05v0ZM48.9,2.1H63.7V18.2H60.6V6.25a1,1,0,0,0-.31-.74,1,1,0,0,0-.74-.31H48.9Zm9.6,5.2V18.2H19V7.3ZM30.7,2.1H46.8V5.2H30.7Zm-16.9,0H28.6V5.2H18a1,1,0,0,0-1.05,1v12H13.8Zm59,51.2H4.7V34.6H28.6v5.45a1,1,0,0,0,1,1.05h18.2a1,1,0,0,0,1-1.05V34.6H72.8ZM30.7,39V34.6H46.8V39Zm44.7-6.5H2.1V20.3H75.4Z"/><rect class="adc05194-88b6-4ec3-b78c-e1c064157339" x="35.1" y="26.65" width="7.3" height="2.1"/></g></g></svg>