<svg xmlns="http://www.w3.org/2000/svg" viewBox="0 0 78 78"><defs><style>.bff1ba7f-5b24-4fd9-989b-0d4add0d4428{fill:#231f20;}</style></defs><title>Asset 9</title><g id="bcd755ab-4ac4-499c-82ae-5fa83005680c" data-name="Layer 2"><g id="ee9da3d6-3e86-4f1b-86b6-8519de8311cb" data-name="Layer 1"><path d="M39,4A35,35,0,1,1,4,39,35,35,0,0,1,39,4m0-4A39,39,0,1,0,78,39,39,39,0,0,0,39,0Z"/></g><g id="a4dd949b-715e-42a6-89f4-66c227443afe" data-name="Layer 6"><path class="bff1ba7f-5b24-4fd9-989b-0d4add0d4428" d="M46.93,14.65a1.17,1.17,0,0,1,1.58.72l.79,1.72c.36.87.08,1.66-1.29,2.09-3.24,1.08-16,8.21-18.51,17.93a21.39,21.39,0,0,1,11-3.24A15.22,15.22,0,0,1,55.93,49.5C55.93,58.57,48.65,66,40,66c-11.66,0-16.77-9.08-16.77-20.53C23.24,26.31,39.65,17.53,46.93,14.65Zm3.88,35.13A11,11,0,0,0,39.94,38.55a17.64,17.64,0,0,0-11.38,4.68c-1.22,7.2,1.59,18,11.45,18C46.06,61.23,50.81,56,50.81,49.78Z"/></g></g></svg>