<svg xmlns="http://www.w3.org/2000/svg" viewBox="0 0 78 55.9"><defs><style>.bd440a9d-edde-4d59-b658-a93659664b76{fill:#262626;}</style></defs><title>Toolbox</title><g id="a335a2ad-f05f-4bcc-8b9d-d9f0eb366413" data-name="Layer 2"><g id="bd811966-8b3b-46b3-a4ef-bda136f00dc0" data-name="toolbox"><path class="bd440a9d-edde-4d59-b658-a93659664b76" d="M76.7,18.2H66.3V1.3A1.3,1.3,0,0,0,65,0H13a1.3,1.3,0,0,0-1.3,1.3h0V18.2H1.3A1.3,1.3,0,0,0,0,19.5H0V33.8a1.3,1.3,0,0,0,1.3,1.3H2.6V54.6a1.3,1.3,0,0,0,1.3,1.3H74.1a1.3,1.3,0,0,0,1.3-1.3h0V35.1h1.3A1.3,1.3,0,0,0,78,33.8h0V19.5a1.3,1.3,0,0,0-1.3-1.3Zm-13,0H61.1V6.5a1.3,1.3,0,0,0-1.3-1.3H49.4V2.6H63.7Zm-44.2,0V7.8h39V18.2ZM46.8,2.6V5.2H31.2V2.6Zm-32.5,0H28.6V5.2H18.2a1.3,1.3,0,0,0-1.3,1.3h0V18.2H14.3ZM72.8,53.3H5.2V35.1H28.6v5.2a1.3,1.3,0,0,0,1.3,1.3H48.1a1.3,1.3,0,0,0,1.3-1.3h0V35.1H72.8ZM31.2,35.1H46.8V39H31.2Zm44.2-2.6H2.6V20.8H75.4Z"/><rect class="bd440a9d-edde-4d59-b658-a93659664b76" x="35.1" y="26.65" width="7.8" height="2.6"/><rect class="bd440a9d-edde-4d59-b658-a93659664b76" x="37.7" y="26.65" width="2.6" height="2.6"/><rect class="bd440a9d-edde-4d59-b658-a93659664b76" x="36.4" y="26.65" width="5.2" height="2.6"/></g></g></svg>