<svg xmlns="http://www.w3.org/2000/svg" viewBox="0 0 80 81.7"><defs><style>.b65904aa-2269-4ac2-96f0-da35c13bb5cc{fill:#60aadd;}.ea57086f-8d6f-4216-841b-7adec9528c2e{fill:#fff;fill-rule:evenodd;}</style></defs><title>twitter</title><g id="b3ade12a-b1aa-4235-8a44-a211480e7365" data-name="Layer 2"><g id="bc5bd6cd-b007-48ff-b88e-2b3f1abd2f7c" data-name="Layer 1"><g id="edeac4de-da3e-4482-ac71-e14786e425cf" data-name="twitter"><rect class="b65904aa-2269-4ac2-96f0-da35c13bb5cc" width="80" height="81.7"/><path class="ea57086f-8d6f-4216-841b-7adec9528c2e" d="M63.33,26.76A17.36,17.36,0,0,1,58,28.32a9.8,9.8,0,0,0,4.06-5.47,17.52,17.52,0,0,1-5.86,2.4,9,9,0,0,0-6.74-3.12c-5.1,0-9.23,4.42-9.23,9.88a10.34,10.34,0,0,0,.24,2.25,25.65,25.65,0,0,1-19-10.32,10.32,10.32,0,0,0-1.25,5,10.08,10.08,0,0,0,4.1,8.22,8.74,8.74,0,0,1-4.18-1.23V36a9.74,9.74,0,0,0,7.41,9.69,8.57,8.57,0,0,1-2.44.35,9,9,0,0,1-1.73-.18A9.34,9.34,0,0,0,32,52.74,17.76,17.76,0,0,1,20.54,57a18,18,0,0,1-2.21-.14,24.87,24.87,0,0,0,14.16,4.44c17,0,26.26-15.05,26.26-28.11,0-.43,0-.86,0-1.28a19.47,19.47,0,0,0,4.6-5.12"/></g></g></g></svg>