<svg xmlns="http://www.w3.org/2000/svg" viewBox="0 0 80 81.7"><defs><style>.a376fa2f-5e6e-4c62-9507-aaccbd8a0328{fill:#e32726;}.adf4d22a-fed6-40fd-a730-8ec368faf4a2{fill:#fff;fill-rule:evenodd;}</style></defs><title>youtube</title><g id="ef09a248-5f9d-4c23-85f6-f888df480ba1" data-name="Layer 2"><g id="ae6e060e-8db3-4b2f-9413-9447ec52a152" data-name="Layer 1"><g id="fe72066c-c00e-4363-83b7-3f074b243b0c" data-name="youtube"><rect class="a376fa2f-5e6e-4c62-9507-aaccbd8a0328" width="80" height="81.7"/><path id="a0e6d9e7-af00-442a-897b-4a47b2341929" data-name="Shape" class="adf4d22a-fed6-40fd-a730-8ec368faf4a2" d="M66.13,30.6s-.52-3.84-2.12-5.53a7.46,7.46,0,0,0-5.34-2.35C51.21,22.15,40,22.15,40,22.15h0s-11.2,0-18.66.57A7.47,7.47,0,0,0,16,25.07c-1.6,1.69-2.12,5.53-2.12,5.53a86.57,86.57,0,0,0-.54,9v4.22a86.63,86.63,0,0,0,.54,9s.52,3.83,2.12,5.52c2,2.22,4.69,2.15,5.88,2.38,4.26.43,18.13.56,18.13.56s11.21,0,18.67-.58A7.43,7.43,0,0,0,64,58.35c1.6-1.69,2.12-5.52,2.12-5.52a86.63,86.63,0,0,0,.54-9V39.6A86.57,86.57,0,0,0,66.13,30.6ZM34.49,48.94V33.3L48.9,41.15Z"/></g></g></g></svg>